<svg width="403" height="330" viewBox="0 0 403 330" fill="none" xmlns="http://www.w3.org/2000/svg">
<path d="M326.69 119.575C325.743 119.414 324.784 119.339 323.823 119.352C316.27 119.893 308.701 120.435 301.164 121.104C293.627 121.774 285.722 122.698 277.994 123.431C276.305 123.59 275.717 124.514 276.673 126.044C277.947 128.1 279.429 130.028 280.895 131.94C282.138 133.533 283.555 135.015 284.766 136.72C286.088 138.342 286.754 140.4 286.633 142.488C286.512 144.576 285.614 146.544 284.113 148.002C281.839 150.213 279.415 152.268 276.864 154.153C275.047 155.555 273.996 155.236 272.928 153.149C270.108 147.651 267.381 142.106 264.593 136.593C263.573 134.617 262.489 132.673 261.406 130.745C261.027 130.2 260.593 129.693 260.115 129.231L259.51 129.518C259.972 131.111 260.34 132.593 260.929 134.075C264.371 142.775 267.843 151.454 271.349 160.112C272.018 161.628 272.769 163.107 273.596 164.542C274.743 166.629 274.345 167.442 272.002 167.729C268.465 168.159 264.913 168.494 261.423 169.163C260.858 169.306 260.329 169.563 259.868 169.92C259.408 170.276 259.025 170.724 258.746 171.234C256.09 177.123 252.076 182.301 247.034 186.34C245.878 187.345 244.963 188.598 244.356 190.005C243.75 191.412 243.467 192.937 243.529 194.467C244.015 193.91 244.423 193.287 244.74 192.618C245.76 188.395 249.009 187.965 252.546 187.71C254.473 187.497 256.369 187.075 258.203 186.451C258.894 186.278 259.497 185.859 259.898 185.272C260.302 184.684 260.474 183.97 260.388 183.265C260.391 181.987 260.655 180.721 261.165 179.549C261.673 178.376 262.418 177.319 263.35 176.445C263.525 176.178 263.758 175.954 264.032 175.79C264.304 175.626 264.612 175.527 264.93 175.498C265.248 175.471 265.568 175.516 265.866 175.63C266.164 175.745 266.432 175.925 266.65 176.158C267.702 176.838 268.552 177.789 269.113 178.91C269.673 180.031 269.923 181.282 269.837 182.532C269.104 191.551 268.433 200.569 267.668 209.62C267.515 213.223 266.132 216.665 263.748 219.372C260.572 223.174 257.15 226.761 253.504 230.112C252.502 230.855 251.679 231.812 251.099 232.917C250.521 234.019 250.197 235.24 250.156 236.486C249.702 239.2 249.004 241.865 248.07 244.453C247.337 247.035 246.572 249.6 245.839 252.166C245.106 254.731 244.341 254.97 241.951 255.352C238.573 255.846 235.243 256.723 231.897 257.424C231.038 257.649 230.153 257.767 229.267 257.775C226.957 257.663 225.969 256.532 226.001 254.205C226.001 252.883 226.112 251.528 226.001 250.206C226.001 249.744 225.443 248.979 225.108 248.963C224.812 248.968 224.522 249.041 224.259 249.176C223.996 249.312 223.768 249.506 223.595 249.743C223.104 250.776 222.683 251.842 222.336 252.93C221.81 254.333 220.886 255.735 219.388 255.416C218.781 255.227 218.226 254.902 217.766 254.465C217.305 254.028 216.948 253.493 216.725 252.899C215.72 249.489 215.047 245.988 214.719 242.445C214.018 231.291 213.604 220.137 213.126 208.983C213.126 208.425 212.998 207.868 212.934 207.294H212.425C212.2 208.581 212.045 209.878 211.962 211.182C211.962 217.364 211.883 223.547 211.962 229.73C211.962 236.805 212.058 243.88 212.329 250.939C212.464 252.424 212.248 253.922 211.693 255.306C211.139 256.691 210.264 257.924 209.142 258.906C208.608 259.378 208.25 260.012 208.119 260.711C207.99 261.409 208.097 262.131 208.425 262.762C208.823 263.782 209.445 264.053 210.289 263.176C210.621 262.88 210.901 262.531 211.118 262.141C212.488 259.113 215.068 258.571 217.968 258.826C220.199 258.871 222.412 259.213 224.549 259.846C226.665 260.74 228.961 261.124 231.253 260.969C233.544 260.813 235.767 260.123 237.743 258.954C238.533 258.472 239.461 258.27 240.379 258.377C241.296 258.484 242.154 258.895 242.812 259.543C246.336 261.956 249.393 264.991 251.829 268.498C253.137 270.591 253.861 272.994 253.925 275.46C253.99 277.925 253.392 280.363 252.196 282.521C250.092 286.823 246.54 290.026 243.242 293.388C242.668 293.978 242.047 294.536 241.441 295.093C240.895 295.718 240.138 296.119 239.314 296.22C238.49 296.32 237.659 296.111 236.98 295.635C234.725 294.449 232.375 293.457 229.953 292.671C227.164 291.699 226.766 290.871 227.578 288.018C227.993 286.691 227.993 285.268 227.578 283.939C226.541 281.339 225.311 278.819 223.896 276.402C223.561 275.797 222.494 275.621 221.761 275.239C221.512 275.961 221.404 276.724 221.444 277.486C222.814 283.11 221.045 286.09 215.564 288.385C213.714 289.339 212.111 290.708 210.879 292.384C210.634 292.711 210.481 293.095 210.433 293.5C210.385 293.905 210.445 294.314 210.608 294.687C210.769 295.061 211.027 295.385 211.354 295.627C211.682 295.869 212.068 296.021 212.472 296.065C214.514 296.331 216.585 296.229 218.591 295.762C221.874 294.966 225.043 294.36 228.326 295.762C228.947 295.892 229.586 295.892 230.208 295.762C230.909 295.662 231.626 295.74 232.289 295.989C232.953 296.239 233.543 296.653 234.005 297.192C234.465 297.73 234.782 298.377 234.926 299.072C235.071 299.767 235.037 300.487 234.829 301.164C232.773 310.231 227.051 315.266 217.825 315.728C206.938 316.294 196.031 316.294 185.145 315.728C175.584 315.219 170.676 310.438 168.095 301.164C167.25 298.137 168.748 296.225 171.855 295.89C172.553 295.896 173.249 295.81 173.927 295.635C178.165 293.946 182.276 295.38 186.435 296.017C187.678 296.248 188.953 296.248 190.196 296.017C190.711 295.935 191.192 295.707 191.581 295.359C191.971 295.012 192.253 294.561 192.395 294.059C192.538 293.557 192.533 293.025 192.384 292.525C192.234 292.026 191.944 291.578 191.55 291.237C190.102 289.462 188.187 288.127 186.021 287.381C184.276 286.822 182.812 285.619 181.924 284.017C181.037 282.416 180.791 280.535 181.241 278.76C181.456 277.96 181.61 277.146 181.703 276.322C181.657 275.774 181.523 275.236 181.304 274.729C180.779 274.904 180.062 274.904 179.791 275.271C178.623 276.694 177.612 278.238 176.779 279.876C175.982 281.687 175.405 283.585 175.058 285.533C174.993 286.528 175.173 287.524 175.584 288.433C175.774 288.751 175.887 289.11 175.911 289.48C175.934 289.849 175.869 290.22 175.721 290.56C175.573 290.899 175.346 291.199 175.058 291.433C174.771 291.667 174.432 291.83 174.07 291.906C171.202 293.101 168.397 294.488 165.45 295.46C164.834 295.645 164.187 295.694 163.553 295.606C162.918 295.519 162.309 295.294 161.769 294.95C157.211 290.982 152.909 286.759 150.344 281.071C147.555 274.872 149.579 269.088 153.897 264.674C155.395 263.081 157.243 261.902 158.677 260.292C159.495 259.242 160.669 258.527 161.979 258.283C163.289 258.039 164.642 258.284 165.783 258.97C167.62 259.916 169.631 260.475 171.693 260.612C173.753 260.749 175.821 260.461 177.767 259.766C181.11 258.998 184.52 258.551 187.948 258.428C188.347 258.453 188.736 258.56 189.092 258.742C189.449 258.922 189.764 259.174 190.021 259.48C190.897 260.467 191.503 261.694 192.299 262.762C192.65 263.224 193.223 263.877 193.638 263.846C193.931 263.76 194.202 263.607 194.428 263.399C194.654 263.192 194.831 262.936 194.944 262.65C195.529 261.242 195.873 259.744 195.963 258.221C195.961 251.715 194.884 245.255 192.776 239.099C192.409 238.095 192.156 237.044 191.853 236.008H191.327C191.327 236.852 191.485 237.681 191.533 238.526C191.82 243.609 192.14 248.676 192.347 253.743C192.294 254.57 191.989 255.36 191.471 256.006C190.594 257.201 189.511 257.599 188.284 256.309C187.753 255.593 187.093 254.983 186.34 254.508C185.438 253.988 184.394 253.77 183.36 253.886C180.849 254.591 178.39 255.464 175.997 256.5C174.424 257.19 172.668 257.352 170.995 256.962C167.282 256.149 163.505 255.655 159.841 254.827C159.386 254.662 158.971 254.408 158.618 254.079C158.265 253.751 157.981 253.354 157.785 252.914C156.988 250.986 156.526 248.915 155.905 246.907C155.076 244.23 154.216 241.553 153.371 238.94C152.925 238.02 152.656 237.026 152.574 236.008C152.909 232.741 150.981 231.228 148.702 229.284C144.013 225.548 140.109 220.924 137.212 215.675C136.589 214.421 136.189 213.069 136.034 211.676C135.301 205.477 134.6 199.295 134.043 193.08C133.708 189.208 133.772 185.32 133.469 181.448C133.324 180.334 133.529 179.204 134.058 178.213C134.587 177.222 135.411 176.421 136.415 175.919C136.858 175.759 137.331 175.699 137.798 175.743C138.267 175.786 138.721 175.935 139.126 176.174C139.967 176.757 140.674 177.514 141.199 178.393C141.725 179.273 142.054 180.255 142.169 181.273C142.934 185.894 144.685 187.344 149.354 187.376C153.529 187.376 154.279 187.742 159.745 192.491C159.694 191.587 159.488 190.698 159.139 189.861C157.959 188.201 156.59 186.683 155.06 185.336C150.919 181.923 147.579 177.641 145.275 172.796C144.127 170.517 142.966 168.462 140.082 168.016C138.829 167.555 137.605 167.023 136.415 166.422C134.922 165.94 133.376 165.635 131.81 165.514C129.818 165.371 128.846 164.606 129.197 162.662C129.978 158.423 130.792 154.184 131.844 149.914C132.063 149.012 132.534 148.19 133.198 147.542C133.862 146.894 134.696 146.446 135.604 146.249C136.689 145.854 137.577 145.047 138.074 144.002C139.986 139.429 141.675 134.776 143.412 130.139C143.614 129.436 143.753 128.716 143.825 127.988L143.253 127.685C142.281 129.279 141.243 130.729 140.351 132.29C139.653 133.511 139.051 134.784 138.55 136.099C137.586 138.735 135.813 140.999 133.485 142.568C130.394 144.671 129.42 148.082 128.926 151.651C128.798 152.511 128.513 153.77 127.924 154.057C127.477 154.148 127.017 154.138 126.576 154.028C126.134 153.917 125.723 153.71 125.374 153.42C122.656 151.124 120.076 148.671 117.644 146.074C115.589 143.763 116.051 138.935 118.09 136.513C120.528 133.565 122.871 130.585 125.341 127.638C126.153 126.634 126.936 125.646 126.33 124.212C125.725 122.777 124.386 123.16 123.143 123.048C118.076 122.538 113.041 121.853 107.974 121.455C99.1459 120.637 90.3181 119.893 81.4904 119.224C79.6228 119.182 77.7553 119.251 75.8973 119.431L75.7699 120.1C76.5523 120.542 77.3809 120.899 78.2397 121.168C84.1036 122.379 89.9835 123.51 95.8474 124.69C101.711 125.869 107.829 127.112 113.788 128.418C114.521 128.578 115.112 129.358 115.766 129.852C115.128 130.41 114.57 131.318 113.853 131.446C111.301 131.984 108.721 132.372 106.125 132.609C95.0363 133.809 83.8646 134.006 72.7423 133.199C65.2053 132.514 57.5885 131.605 51.1032 127.048C49.2803 125.8 47.6677 124.273 46.3228 122.523C43.9964 119.447 44.1876 116.579 46.3228 113.424C50.316 108.075 55.3051 103.547 61.0145 100.087C64.7782 97.4688 68.6997 95.0848 72.7582 92.948C77.6852 90.2955 82.9181 88.2566 88.3422 86.8769C93.9193 85.7297 99.847 86.0483 105.631 86.128C108.149 86.3675 110.63 86.9023 113.025 87.7215C116.483 88.6297 118.793 91.0996 120.912 93.7607C123.701 97.2185 126.345 100.836 129.324 104.134C130.516 105.318 132.028 106.127 133.676 106.461C136.549 107.024 139.454 107.413 142.376 107.624C143.014 107.624 143.713 107.193 144.382 106.954C143.924 106.356 143.388 105.82 142.789 105.361C139.921 103.768 136.943 102.541 134.154 100.883C131.366 99.2262 131.445 97.0591 133.501 94.6689C134.344 93.5642 135.121 92.4096 135.827 91.2111L135.22 90.4463C133.993 90.9117 132.79 91.4436 131.62 92.0397C130.489 92.6771 129.421 93.6332 128.195 92.5497C126.968 91.4661 127.621 90.1595 128.195 89.0281C129.087 87.4347 130.186 85.8412 131.031 84.2477C132.645 81.1891 133.431 77.761 133.308 74.3046C133.348 72.5016 134.092 70.7856 135.381 69.5242C139.185 65.2922 144.005 62.1003 149.387 60.2503C151.921 59.2783 154.63 58.8003 157.243 57.9717C158.289 57.5682 159.296 57.0723 160.255 56.4898C165.816 53.5259 171.216 50.2593 176.937 47.7098C178.901 46.9147 181.019 46.5694 183.134 46.6989C185.248 46.8285 187.307 47.4299 189.16 48.4587C191.767 49.7 194.686 50.133 197.542 49.7016C199.645 49.4148 201.812 49.7972 203.916 49.7016C206.258 49.6875 208.588 49.3332 210.831 48.65C217.954 45.8295 224.79 46.8812 231.387 49.9885C235.609 51.9962 239.497 54.7687 243.64 56.9198C245.016 57.6906 246.598 58.0083 248.166 57.8283C252.737 57.0558 257.43 58.1274 261.216 60.808C267.518 64.9155 272.16 71.1268 274.314 78.336C274.799 80.4375 275.16 82.5659 275.396 84.7098C275.688 86.691 276.223 88.6286 276.99 90.4782C277.946 92.3903 278.456 94.0316 277.277 96.0074C276.73 97.2209 276.287 98.4789 275.956 99.768L276.432 100.214C277.277 99.4334 278.424 98.8118 278.934 97.8557C283.603 89.1714 291.253 86.2396 300.622 85.8571C312.946 85.3705 325.101 88.8562 335.294 95.8003C341.443 99.8789 347.374 104.277 353.063 108.978C355.048 110.861 356.553 113.195 357.445 115.782C359.038 119.861 356.997 123.032 353.922 125.662C349.358 129.267 343.889 131.55 338.116 132.259C323.409 134.76 308.684 133.995 293.976 132.131C292.449 132.042 290.929 131.871 289.42 131.621C288.655 131.446 288.034 130.601 287.333 130.028C287.986 129.438 288.542 128.434 289.291 128.307C295.075 127.032 300.893 125.885 306.693 124.737C312.494 123.59 318.69 122.395 324.698 121.184C325.44 120.962 326.161 120.674 326.851 120.324L326.69 119.575Z" fill="white"/>
<path d="M199.47 29.1305C187.546 29.5004 175.718 31.3906 164.27 34.7554C152.826 38.0739 141.917 43.016 131.875 49.4311C124.276 54.1313 117.313 59.7924 111.16 66.2739C108.26 69.3174 105.36 72.3609 102.349 75.2929C101.631 75.8503 100.739 76.1328 99.8309 76.0896C95.5285 75.994 91.2326 75.8028 86.9398 75.516C86.5526 75.4729 86.1765 75.3536 85.8339 75.1649C85.4929 74.9763 85.1918 74.7219 84.948 74.4165C84.8571 74.1026 84.8412 73.7715 84.9018 73.4502C84.9623 73.1288 85.0994 72.8265 85.2985 72.5681C90.7163 66.3217 95.9747 59.916 101.743 54.0203C105.923 49.924 110.408 46.1524 115.16 42.7386C120.261 38.835 125.581 35.2277 131.094 31.935C135.988 29.0622 141.128 26.6357 146.455 24.6847C154.168 21.9121 162.039 19.5219 169.991 17.4823C184.004 13.7043 198.623 12.7242 213.014 14.5981C215.213 14.9009 217.396 15.3312 219.595 15.6817C231.63 17.6754 243.393 21.0547 254.651 25.7523C262.145 28.8895 269.287 32.8099 275.955 37.4483C280.146 40.3165 284.417 43.137 288.353 46.3398C291.852 49.3014 295.187 52.4505 298.343 55.7731C301.26 58.705 304.064 61.7485 306.789 64.8558C309.004 67.3734 311.091 70.0186 313.163 72.6956C313.336 72.9797 313.441 73.3008 313.47 73.6327C313.497 73.9647 313.446 74.2986 313.322 74.6077C313.124 74.8741 312.871 75.0945 312.579 75.254C312.288 75.4135 311.964 75.5083 311.633 75.5319C307.522 75.7391 303.411 75.9303 299.3 75.8984C298.053 75.8469 296.865 75.3493 295.953 74.4962C292.081 70.64 288.544 66.4333 284.56 62.6887C278.73 56.9846 272.165 52.0813 265.04 48.1085C260.26 45.5431 255.48 42.7545 250.556 40.3644C243.584 37.0772 236.237 34.6532 228.678 33.146C223.579 32.0784 218.48 30.947 213.333 30.214C208.712 29.6563 204.043 29.4651 199.47 29.1305Z" fill="white"/>
<path d="M74.4474 145.978C73.5694 157.054 74.2402 168.199 76.4392 179.089C77.7235 187.143 80.1201 194.978 83.562 202.37C86.3505 207.931 88.4539 213.891 91.6567 219.197C96.2411 226.925 101.672 234.118 107.846 240.645C113.572 246.799 119.874 252.392 126.665 257.344C129.453 259.32 132.385 261.136 135.27 263.001C137.325 264.323 137.437 265.024 136.672 267.255C135.711 270.063 134.922 272.926 134.314 275.828C133.851 277.963 132.848 278.617 131.015 277.422C124.052 272.721 116.865 268.307 110.3 263.08C105.023 258.657 100.065 253.864 95.4651 248.739C88.2611 241.003 82.0721 232.383 77.0447 223.085C73.7144 216.807 70.6709 210.337 67.8505 203.804C65.0412 196.495 62.9586 188.927 61.636 181.209C59.4004 169.237 58.5973 157.041 59.2458 144.879C59.2458 144.114 59.2458 143.285 59.3733 142.584C59.3622 142.31 59.4116 142.036 59.5199 141.784C59.6283 141.531 59.7908 141.306 59.998 141.124C60.2035 140.943 60.4473 140.809 60.7118 140.734C60.9747 140.658 61.2536 140.643 61.5245 140.688C65.2691 140.783 69.0296 140.815 72.7583 141.118C73.4276 141.118 74.2721 142.313 74.543 143.11C74.688 144.064 74.6561 145.036 74.4474 145.978Z" fill="white"/>
<path d="M339.152 154.344C339.533 164.985 338.423 175.626 335.854 185.958C330.697 209.135 319.567 230.559 303.57 248.103C297.577 254.785 291.001 260.923 283.923 266.443C279.222 270.013 274.092 273.024 269.152 276.259C268.054 277.021 266.899 277.691 265.694 278.267C264.101 278.968 263.415 278.267 263.065 276.673C262.574 274.007 261.887 271.381 261.009 268.817C260.053 266.204 260.213 265.471 262.603 264.037C270.793 258.779 279.095 253.632 285.835 246.509C291.062 240.964 296.671 235.674 301.069 229.507C305.919 222.43 310.233 215 313.976 207.278C316.458 202.115 318.49 196.747 320.047 191.232C324.292 177.455 326.065 163.035 325.289 148.64C325.21 147.046 325.098 145.325 324.939 143.684C324.779 142.043 325.273 141.23 327.122 141.166L335.312 140.848C338.021 140.72 339.089 141.581 339.168 144.305C339.216 147.572 339.152 150.966 339.152 154.344Z" fill="white"/>
</svg>
