<svg width="403" height="330" viewBox="0 0 403 330" fill="none" xmlns="http://www.w3.org/2000/svg">
<path d="M280.499 66.4603C279.905 66.3594 279.303 66.3126 278.7 66.3203C273.96 66.6603 269.21 67.0003 264.48 67.4203C259.75 67.8403 254.789 68.4203 249.939 68.8803C248.879 68.9803 248.51 69.5603 249.11 70.5203C249.91 71.8103 250.84 73.0203 251.76 74.2203C252.54 75.2203 253.429 76.1503 254.189 77.2203C255.019 78.238 255.437 79.5294 255.361 80.84C255.285 82.1505 254.721 83.3851 253.779 84.3003C252.352 85.688 250.831 86.9776 249.23 88.1603C248.09 89.0403 247.43 88.8403 246.76 87.5303C244.99 84.0803 243.279 80.6002 241.529 77.1402C240.889 75.9002 240.209 74.6803 239.529 73.4703C239.291 73.1283 239.019 72.8101 238.719 72.5203L238.339 72.7003C238.629 73.7003 238.86 74.6303 239.23 75.5603C241.39 81.0203 243.569 86.4669 245.769 91.9003C246.189 92.8515 246.66 93.7795 247.179 94.6803C247.899 95.9903 247.649 96.5003 246.179 96.6803C243.959 96.9503 241.73 97.1603 239.54 97.5803C239.185 97.6699 238.853 97.8316 238.564 98.0553C238.275 98.279 238.035 98.5598 237.86 98.8803C236.193 102.576 233.674 105.825 230.51 108.36C229.784 108.991 229.21 109.777 228.829 110.66C228.449 111.543 228.271 112.5 228.31 113.46C228.615 113.111 228.871 112.72 229.07 112.3C229.71 109.65 231.749 109.38 233.969 109.22C235.178 109.086 236.368 108.821 237.519 108.43C237.953 108.321 238.331 108.058 238.583 107.69C238.836 107.321 238.944 106.873 238.89 106.43C238.892 105.628 239.058 104.834 239.378 104.098C239.697 103.362 240.164 102.699 240.749 102.15C240.859 101.983 241.005 101.842 241.177 101.739C241.348 101.636 241.541 101.574 241.741 101.556C241.94 101.539 242.141 101.567 242.328 101.639C242.515 101.711 242.683 101.824 242.82 101.97C243.48 102.397 244.014 102.994 244.366 103.697C244.717 104.401 244.874 105.186 244.82 105.97C244.36 111.63 243.939 117.29 243.459 122.97C243.363 125.231 242.495 127.391 240.999 129.09C239.006 131.476 236.858 133.727 234.57 135.83C233.941 136.296 233.425 136.897 233.061 137.59C232.698 138.282 232.495 139.048 232.469 139.83C232.184 141.533 231.746 143.206 231.16 144.83C230.7 146.45 230.22 148.06 229.76 149.67C229.3 151.28 228.82 151.43 227.32 151.67C225.2 151.98 223.11 152.53 221.01 152.97C220.471 153.111 219.916 153.185 219.36 153.19C217.91 153.12 217.29 152.41 217.31 150.95C217.31 150.12 217.38 149.27 217.31 148.44C217.31 148.15 216.96 147.67 216.75 147.66C216.564 147.663 216.382 147.709 216.217 147.794C216.052 147.879 215.909 148.001 215.8 148.15C215.492 148.798 215.228 149.467 215.01 150.15C214.68 151.03 214.1 151.91 213.16 151.71C212.779 151.591 212.431 151.387 212.142 151.113C211.853 150.839 211.629 150.503 211.489 150.13C210.858 147.99 210.436 145.793 210.23 143.57C209.79 136.57 209.53 129.57 209.23 122.57C209.23 122.22 209.15 121.87 209.11 121.51H208.79C208.649 122.318 208.552 123.132 208.5 123.95C208.5 127.83 208.45 131.71 208.5 135.59C208.5 140.03 208.56 144.47 208.73 148.9C208.815 149.832 208.679 150.772 208.331 151.641C207.983 152.51 207.434 153.284 206.73 153.9C206.395 154.196 206.17 154.594 206.088 155.033C206.007 155.471 206.074 155.924 206.28 156.32C206.53 156.96 206.92 157.13 207.45 156.58C207.658 156.394 207.834 156.175 207.97 155.93C208.83 154.03 210.449 153.69 212.269 153.85C213.669 153.878 215.058 154.093 216.399 154.49C217.727 155.051 219.168 155.292 220.606 155.195C222.044 155.097 223.439 154.664 224.679 153.93C225.175 153.628 225.757 153.501 226.333 153.568C226.909 153.635 227.447 153.893 227.86 154.3C230.072 155.814 231.99 157.719 233.519 159.92C234.34 161.233 234.794 162.741 234.834 164.289C234.875 165.836 234.5 167.366 233.749 168.72C232.429 171.42 230.2 173.43 228.13 175.54C227.77 175.91 227.38 176.26 227 176.61C226.657 177.002 226.182 177.254 225.665 177.317C225.148 177.38 224.626 177.249 224.2 176.95C222.785 176.206 221.31 175.583 219.79 175.09C218.04 174.48 217.79 173.96 218.3 172.17C218.56 171.337 218.56 170.444 218.3 169.61C217.649 167.978 216.877 166.397 215.989 164.88C215.779 164.5 215.109 164.39 214.649 164.15C214.493 164.603 214.425 165.082 214.45 165.56C215.31 169.09 214.2 170.96 210.76 172.4C209.599 172.999 208.593 173.858 207.82 174.91C207.666 175.115 207.57 175.356 207.54 175.61C207.51 175.864 207.548 176.121 207.65 176.355C207.751 176.59 207.913 176.793 208.118 176.945C208.324 177.097 208.566 177.192 208.82 177.22C210.101 177.387 211.401 177.323 212.66 177.03C214.72 176.53 216.709 176.15 218.769 177.03C219.159 177.111 219.56 177.111 219.95 177.03C220.39 176.967 220.84 177.016 221.256 177.172C221.673 177.329 222.043 177.589 222.333 177.927C222.622 178.265 222.821 178.671 222.911 179.107C223.002 179.543 222.981 179.995 222.85 180.42C221.56 186.11 217.969 189.27 212.179 189.56C205.347 189.915 198.502 189.915 191.67 189.56C185.67 189.24 182.59 186.24 180.97 180.42C180.44 178.52 181.38 177.32 183.33 177.11C183.768 177.114 184.205 177.06 184.63 176.95C187.29 175.89 189.87 176.79 192.48 177.19C193.26 177.335 194.06 177.335 194.84 177.19C195.163 177.138 195.465 176.995 195.709 176.777C195.954 176.559 196.131 176.276 196.22 175.961C196.31 175.646 196.307 175.312 196.213 174.998C196.119 174.685 195.937 174.404 195.69 174.19C194.781 173.076 193.579 172.238 192.22 171.77C191.125 171.419 190.206 170.664 189.649 169.659C189.092 168.654 188.938 167.474 189.22 166.36C189.355 165.858 189.452 165.347 189.51 164.83C189.481 164.486 189.397 164.148 189.26 163.83C188.93 163.94 188.48 163.94 188.31 164.17C187.577 165.063 186.943 166.032 186.42 167.06C185.92 168.197 185.558 169.388 185.34 170.61C185.299 171.235 185.412 171.86 185.67 172.43C185.789 172.63 185.86 172.855 185.875 173.087C185.89 173.319 185.849 173.552 185.756 173.765C185.663 173.978 185.521 174.166 185.34 174.313C185.16 174.46 184.947 174.562 184.72 174.61C182.92 175.36 181.16 176.23 179.31 176.84C178.924 176.956 178.518 176.987 178.12 176.932C177.721 176.877 177.339 176.736 177 176.52C174.14 174.03 171.44 171.38 169.83 167.81C168.08 163.92 169.35 160.29 172.06 157.52C173 156.52 174.16 155.78 175.06 154.77C175.573 154.111 176.31 153.662 177.132 153.509C177.954 153.356 178.803 153.51 179.519 153.94C180.672 154.534 181.934 154.885 183.228 154.971C184.521 155.057 185.819 154.876 187.04 154.44C189.138 153.958 191.278 153.677 193.429 153.6C193.68 153.616 193.924 153.683 194.147 153.797C194.371 153.91 194.569 154.068 194.73 154.26C195.28 154.88 195.66 155.65 196.16 156.32C196.38 156.61 196.74 157.02 197 157C197.184 156.946 197.354 156.85 197.496 156.72C197.638 156.59 197.749 156.429 197.82 156.25C198.187 155.366 198.403 154.426 198.459 153.47C198.458 149.387 197.782 145.333 196.459 141.47C196.229 140.84 196.07 140.18 195.88 139.53H195.55C195.55 140.06 195.649 140.58 195.679 141.11C195.859 144.3 196.06 147.48 196.19 150.66C196.157 151.179 195.965 151.675 195.64 152.08C195.09 152.83 194.41 153.08 193.64 152.27C193.307 151.821 192.893 151.438 192.42 151.14C191.854 150.814 191.199 150.677 190.55 150.75C188.974 151.192 187.431 151.74 185.929 152.39C184.942 152.823 183.84 152.925 182.79 152.68C180.46 152.17 178.09 151.86 175.79 151.34C175.505 151.237 175.244 151.077 175.023 150.871C174.801 150.665 174.623 150.416 174.5 150.14C174 148.93 173.71 147.63 173.32 146.37C172.8 144.69 172.26 143.01 171.73 141.37C171.45 140.793 171.281 140.169 171.23 139.53C171.44 137.48 170.23 136.53 168.8 135.31C165.857 132.966 163.407 130.064 161.589 126.77C161.198 125.983 160.947 125.134 160.85 124.26C160.39 120.37 159.95 116.49 159.6 112.59C159.39 110.16 159.43 107.72 159.24 105.29C159.149 104.591 159.278 103.882 159.61 103.26C159.942 102.638 160.459 102.135 161.089 101.82C161.367 101.72 161.664 101.682 161.957 101.71C162.251 101.737 162.536 101.83 162.79 101.98C163.318 102.346 163.762 102.821 164.091 103.373C164.421 103.925 164.628 104.541 164.7 105.18C165.18 108.08 166.279 108.99 169.209 109.01C171.829 109.01 172.3 109.24 175.73 112.22C175.698 111.653 175.569 111.095 175.35 110.57C174.609 109.528 173.75 108.575 172.79 107.73C170.191 105.588 168.095 102.901 166.649 99.8603C165.929 98.4303 165.2 97.1403 163.39 96.8603C162.604 96.5713 161.836 96.2374 161.089 95.8603C160.152 95.5574 159.182 95.3661 158.199 95.2903C156.949 95.2003 156.339 94.7203 156.559 93.5003C157.049 90.8403 157.56 88.1803 158.22 85.5003C158.358 84.9343 158.653 84.4186 159.07 84.012C159.487 83.6053 160.01 83.3241 160.58 83.2003C161.261 82.9523 161.818 82.4457 162.13 81.7903C163.33 78.9203 164.39 76.0003 165.48 73.0903C165.607 72.6492 165.694 72.1973 165.739 71.7403L165.38 71.5503C164.77 72.5503 164.119 73.4603 163.559 74.4403C163.121 75.206 162.743 76.0051 162.429 76.8302C161.824 78.4849 160.711 79.9058 159.25 80.8902C157.31 82.2102 156.699 84.3503 156.389 86.5903C156.309 87.1303 156.13 87.9203 155.76 88.1003C155.48 88.1574 155.191 88.1511 154.914 88.0819C154.637 88.0126 154.379 87.8823 154.16 87.7003C152.454 86.2598 150.835 84.7205 149.309 83.0903C148.019 81.6403 148.309 78.6103 149.589 77.0903C151.119 75.2403 152.589 73.3703 154.139 71.5203C154.649 70.8903 155.14 70.2703 154.76 69.3703C154.38 68.4703 153.54 68.7102 152.76 68.6402C149.58 68.3202 146.42 67.8902 143.24 67.6402C137.7 67.1269 132.16 66.6603 126.62 66.2403C125.448 66.2138 124.276 66.2572 123.11 66.3703L123.03 66.7903C123.521 67.0672 124.041 67.2917 124.58 67.4603C128.26 68.2203 131.95 68.9303 135.63 69.6703C139.31 70.4103 143.149 71.1903 146.889 72.0103C147.349 72.1103 147.72 72.6003 148.13 72.9103C147.73 73.2603 147.38 73.8303 146.93 73.9103C145.328 74.2479 143.709 74.4916 142.08 74.6402C135.121 75.3931 128.11 75.517 121.13 75.0103C116.4 74.5803 111.62 74.0103 107.55 71.1503C106.406 70.3672 105.394 69.4087 104.55 68.3103C103.09 66.3803 103.21 64.5803 104.55 62.6003C107.056 59.2438 110.187 56.4019 113.77 54.2303C116.132 52.5874 118.593 51.0913 121.14 49.7503C124.232 48.0857 127.516 46.8061 130.92 45.9403C134.42 45.2203 138.14 45.4203 141.77 45.4703C143.35 45.6206 144.907 45.9562 146.41 46.4703C148.58 47.0403 150.03 48.5903 151.36 50.2603C153.11 52.4303 154.769 54.7003 156.639 56.7703C157.387 57.5134 158.336 58.021 159.37 58.2303C161.173 58.5841 162.996 58.8278 164.83 58.9603C165.23 58.9603 165.669 58.6903 166.089 58.5403C165.801 58.1646 165.465 57.8284 165.089 57.5403C163.289 56.5403 161.42 55.7703 159.67 54.7303C157.92 53.6903 157.97 52.3303 159.26 50.8303C159.789 50.137 160.277 49.4124 160.72 48.6603L160.339 48.1803C159.569 48.4724 158.814 48.8062 158.08 49.1803C157.37 49.5803 156.7 50.1803 155.93 49.5003C155.16 48.8203 155.57 48.0003 155.93 47.2903C156.49 46.2903 157.18 45.2903 157.71 44.2903C158.723 42.3708 159.216 40.2194 159.139 38.0503C159.164 36.9188 159.631 35.8419 160.44 35.0503C162.827 32.3944 165.852 30.3913 169.23 29.2303C170.82 28.6203 172.52 28.3203 174.16 27.8003C174.816 27.5471 175.448 27.2359 176.05 26.8703C179.54 25.0103 182.929 22.9603 186.519 21.3603C187.752 20.8613 189.081 20.6446 190.408 20.7259C191.735 20.8072 193.027 21.1846 194.19 21.8303C195.826 22.6093 197.658 22.881 199.45 22.6103C200.77 22.4303 202.13 22.6703 203.45 22.6103C204.92 22.6014 206.382 22.3791 207.79 21.9503C212.26 20.1803 216.55 20.8403 220.69 22.7903C223.34 24.0503 225.78 25.7902 228.38 27.1402C229.243 27.6239 230.236 27.8233 231.22 27.7103C234.089 27.2255 237.034 27.898 239.41 29.5803C243.365 32.158 246.278 36.056 247.63 40.5803C247.934 41.8991 248.161 43.2348 248.309 44.5803C248.492 45.8236 248.828 47.0396 249.309 48.2003C249.909 49.4003 250.229 50.4303 249.489 51.6703C249.146 52.4318 248.868 53.2213 248.66 54.0303L248.959 54.3103C249.489 53.8203 250.209 53.4302 250.529 52.8302C253.459 47.3802 258.26 45.5403 264.14 45.3003C271.874 44.9949 279.502 47.1824 285.899 51.5403C289.758 54.0999 293.48 56.8603 297.05 59.8103C298.296 60.9918 299.24 62.4565 299.8 64.0802C300.8 66.6402 299.519 68.6303 297.589 70.2803C294.725 72.5432 291.293 73.9754 287.67 74.4203C278.44 75.9903 269.199 75.5103 259.969 74.3403C259.011 74.2842 258.057 74.1773 257.11 74.0203C256.63 73.9103 256.24 73.3803 255.8 73.0203C256.21 72.6503 256.559 72.0203 257.029 71.9403C260.659 71.1403 264.31 70.4203 267.95 69.7003C271.59 68.9803 275.479 68.2303 279.249 67.4703C279.715 67.3311 280.167 67.1504 280.6 66.9303L280.499 66.4603Z" fill="black"/>
<path d="M200.66 9.70039C193.177 9.93255 185.754 11.1188 178.57 13.2304C171.388 15.313 164.542 18.4145 158.24 22.4404C153.471 25.3901 149.101 28.9428 145.24 33.0104C143.42 34.9204 141.6 36.8304 139.71 38.6704C139.26 39.0202 138.7 39.1975 138.13 39.1704C135.43 39.1104 132.734 38.9904 130.04 38.8104C129.797 38.7834 129.561 38.7085 129.346 38.5901C129.132 38.4717 128.943 38.3121 128.79 38.1204C128.733 37.9234 128.723 37.7156 128.761 37.514C128.799 37.3123 128.885 37.1226 129.01 36.9604C132.41 33.0404 135.71 29.0204 139.33 25.3204C141.953 22.7497 144.768 20.3828 147.75 18.2404C150.951 15.7906 154.29 13.5268 157.75 11.4604C160.821 9.65752 164.047 8.13472 167.39 6.91038C172.23 5.17038 177.17 3.67036 182.16 2.39036C190.954 0.0194166 200.129 -0.595628 209.16 0.580367C210.54 0.770367 211.91 1.04039 213.29 1.26039C220.843 2.51154 228.225 4.63229 235.29 7.58037C239.993 9.54913 244.475 12.0095 248.66 14.9204C251.29 16.7204 253.97 18.4904 256.44 20.5004C258.636 22.359 260.729 24.3353 262.71 26.4204C264.54 28.2604 266.3 30.1704 268.01 32.1204C269.4 33.7004 270.71 35.3604 272.01 37.0404C272.119 37.2187 272.185 37.4202 272.203 37.6285C272.22 37.8369 272.188 38.0464 272.11 38.2404C271.986 38.4076 271.827 38.5459 271.644 38.646C271.461 38.7461 271.258 38.8056 271.05 38.8204C268.47 38.9504 265.89 39.0704 263.31 39.0504C262.528 39.0181 261.782 38.7058 261.21 38.1704C258.78 35.7504 256.56 33.1104 254.06 30.7604C250.401 27.1807 246.281 24.1036 241.81 21.6104C238.81 20.0004 235.81 18.2504 232.72 16.7504C228.345 14.6875 223.734 13.1663 218.99 12.2204C215.79 11.5504 212.59 10.8404 209.36 10.3804C206.46 10.0304 203.53 9.91039 200.66 9.70039Z" fill="black"/>
<path d="M122.2 83.0304C121.649 89.9815 122.07 96.9754 123.45 103.81C124.256 108.864 125.76 113.781 127.92 118.42C129.67 121.91 130.99 125.65 133 128.98C135.877 133.83 139.285 138.344 143.16 142.44C146.753 146.302 150.708 149.812 154.97 152.92C156.72 154.16 158.56 155.3 160.37 156.47C161.66 157.3 161.73 157.74 161.25 159.14C160.647 160.902 160.152 162.699 159.77 164.52C159.48 165.86 158.85 166.27 157.7 165.52C153.33 162.57 148.82 159.8 144.7 156.52C141.388 153.744 138.277 150.736 135.39 147.52C130.869 142.665 126.985 137.255 123.83 131.42C121.74 127.48 119.83 123.42 118.06 119.32C116.297 114.733 114.99 109.984 114.16 105.14C112.757 97.6268 112.253 89.973 112.66 82.3404C112.66 81.8604 112.66 81.3404 112.74 80.9004C112.733 80.7282 112.764 80.5566 112.832 80.3982C112.9 80.2397 113.002 80.0984 113.132 79.9844C113.261 79.8704 113.414 79.7867 113.58 79.7393C113.745 79.6919 113.92 79.682 114.09 79.7104C116.44 79.7704 118.8 79.7904 121.14 79.9804C121.56 79.9804 122.09 80.7304 122.26 81.2304C122.351 81.829 122.331 82.4393 122.2 83.0304Z" fill="black"/>
<path d="M288.32 88.2803C288.559 94.9579 287.862 101.636 286.25 108.12C283.014 122.665 276.029 136.11 265.99 147.12C262.229 151.314 258.102 155.166 253.66 158.63C250.71 160.87 247.49 162.76 244.39 164.79C243.701 165.268 242.976 165.689 242.22 166.05C241.22 166.49 240.79 166.05 240.57 165.05C240.262 163.377 239.831 161.729 239.28 160.12C238.68 158.48 238.78 158.02 240.28 157.12C245.42 153.82 250.63 150.59 254.86 146.12C258.14 142.64 261.66 139.32 264.42 135.45C267.464 131.009 270.171 126.346 272.52 121.5C274.078 118.26 275.353 114.891 276.33 111.43C278.994 102.784 280.107 93.7346 279.62 84.7003C279.57 83.7003 279.5 82.6203 279.4 81.5903C279.3 80.5603 279.61 80.0503 280.77 80.0103L285.91 79.8103C287.61 79.7303 288.28 80.2703 288.33 81.9803C288.36 84.0303 288.32 86.1603 288.32 88.2803Z" fill="black"/>
<path d="M0.090004 269.03V250.92C0.090004 249.2 0.600002 248.77 2.33 248.77C10.24 248.77 18.16 248.69 26.07 248.77C28.7772 248.795 31.4759 249.076 34.13 249.61C36.2591 250.141 38.1826 251.292 39.6567 252.918C41.1308 254.543 42.089 256.57 42.41 258.74C42.84 261.74 40.52 266.03 37.75 267.32C37.4 267.48 36.86 268.04 36.91 268.14C37.1242 268.61 37.472 269.007 37.91 269.28C41.85 270.92 44.76 276.81 42.85 281.18C42.0945 282.994 40.9052 284.595 39.3865 285.841C37.8678 287.088 36.0662 287.943 34.14 288.33C29.53 289.44 24.83 289.02 20.14 289.09C14.43 289.17 8.72 289.09 3 289.09C0.0899999 289.09 0.06 289.09 0 286.16C0 280.45 0 274.73 0 269.02L0.090004 269.03ZM19.09 285.03C22.09 284.93 26.68 284.79 31.26 284.59C33.4808 284.43 35.5543 283.42 37.05 281.77C38.84 280 39.05 274.77 36.56 272.87C33.61 270.68 30.34 270.25 26.94 270.17C22.35 270.06 17.76 270.17 13.16 270.17C11.01 270.17 8.85 270.17 6.7 270.17C5.7 270.17 4.91 270.52 4.9 271.64C4.9 275.64 4.9 279.55 4.9 283.5C4.9 284.64 5.56 285.1 6.7 285.1L19.09 285.03ZM19.24 266.42C21.67 266.42 24.13 266.58 26.55 266.42C28.9297 266.343 31.2864 265.929 33.55 265.19C34.5488 264.835 35.4325 264.215 36.1075 263.397C36.7824 262.58 37.2232 261.595 37.3832 260.546C37.5432 259.498 37.4163 258.427 37.0161 257.445C36.6158 256.463 35.9572 255.608 35.11 254.97C33.818 253.966 32.2534 253.373 30.62 253.27C23.83 253.04 17.04 253.09 10.24 253.04C8.88001 253.04 7.53001 252.98 6.17001 253.04C5.98832 253.023 5.80497 253.046 5.63346 253.108C5.46195 253.171 5.30666 253.271 5.17902 253.402C5.05139 253.532 4.95467 253.69 4.896 253.862C4.83732 254.035 4.81819 254.219 4.84 254.4C4.84 257.88 4.84 261.4 4.84 264.84C4.81803 265.052 4.84211 265.265 4.91059 265.466C4.97907 265.667 5.09033 265.851 5.23669 266.005C5.38306 266.159 5.56106 266.28 5.75843 266.358C5.9558 266.437 6.16787 266.472 6.38 266.46C7.49 266.46 8.60001 266.46 9.71001 266.46L19.24 266.42Z" fill="black"/>
<path d="M150.289 270.93H135.289C135.11 270.963 134.926 270.952 134.751 270.901C134.577 270.85 134.417 270.758 134.284 270.634C134.151 270.509 134.048 270.356 133.985 270.185C133.922 270.014 133.899 269.831 133.919 269.65C133.913 269.209 133.936 268.768 133.989 268.33C134.149 266.86 134.409 266.75 135.899 266.76C142.219 266.82 148.529 266.82 154.899 266.82C159.899 266.82 164.899 266.8 169.899 266.76C171.169 266.76 171.329 267.56 171.329 268.5C171.329 271.66 171.329 274.82 171.329 277.98C171.329 281.14 171.329 284.14 171.329 287.22C171.329 288.77 171.059 289.16 169.909 289.22C167.909 289.3 167.179 288.8 167.089 287.28C166.989 285.49 166.969 283.69 166.849 281.89C166.759 281.488 166.604 281.103 166.389 280.75C166.021 280.916 165.683 281.142 165.389 281.42C162.925 284.689 159.524 287.13 155.639 288.42C148.563 291.003 140.836 291.196 133.639 288.97C125.419 286.54 119.519 281.33 117.559 272.66C117.145 270.185 117.175 267.655 117.649 265.19C118.014 262.659 118.992 260.256 120.499 258.19C122.496 255.284 125.147 252.886 128.239 251.19C133.798 248.293 140.081 247.077 146.319 247.69C150.122 248.098 153.836 249.111 157.319 250.69C160.513 252.057 163.171 254.431 164.889 257.45C165.629 258.71 165.389 259.32 164.029 259.77C161.549 260.6 161.569 260.59 160.109 258.35C158.649 256.11 156.109 254.76 153.649 253.77C147.629 251.312 140.936 251.047 134.739 253.02C129.559 254.59 125.449 257.59 123.259 262.62C121.379 266.93 121.169 271.32 123.529 275.68C126.039 280.32 129.879 283.03 134.779 284.75C139.948 286.512 145.485 286.902 150.849 285.88C155.596 285.127 159.965 282.841 163.289 279.37C164.963 277.599 166.127 275.408 166.659 273.03C167.089 271.23 166.589 270.83 164.739 270.85C159.939 270.85 155.139 270.85 150.339 270.85L150.289 270.93Z" fill="black"/>
<path d="M83.3997 290.42C79.3058 290.271 75.2762 289.355 71.5197 287.72C65.3797 285.06 61.0697 280.72 59.1297 274.12C58.4409 271.751 58.2268 269.269 58.4997 266.817C58.7726 264.365 59.527 261.99 60.7197 259.83C62.9097 255.58 66.4797 252.69 70.7197 250.6C76.7197 247.67 83.0797 247.18 89.5597 247.68C95.1871 248.022 100.6 249.965 105.16 253.28C107.618 255.213 109.636 257.647 111.08 260.42C113.08 263.93 112.95 267.68 112.69 271.47C112.2 278.4 108.05 282.8 102.57 286.41C98.8297 288.91 90.4997 290.56 83.3997 290.42ZM108.23 269.16C108.314 265.523 107.094 261.976 104.79 259.16C100.47 254.16 94.6797 252.33 88.4097 251.7C83.8155 251.251 79.1795 251.863 74.8597 253.49C72.573 254.25 70.4643 255.466 68.6612 257.065C66.8581 258.663 65.3981 260.611 64.3697 262.79C63.467 264.662 62.9982 266.713 62.9982 268.79C62.9982 270.868 63.467 272.919 64.3697 274.79C65.173 276.794 66.3506 278.627 67.8397 280.19C71.0639 283.092 75.0507 285.011 79.3297 285.72C86.4197 286.99 93.2697 286.57 99.6797 282.96C105.02 279.93 108.06 275.42 108.23 269.16Z" fill="black"/>
<path d="M255.98 269.11C255.98 274.95 255.98 280.78 255.98 286.62C255.98 288.72 255.67 289.09 253.6 289.17C252.488 289.26 251.371 289.26 250.26 289.17C249.645 289.035 249.089 288.709 248.67 288.24C246.43 285.85 244.25 283.41 242.05 280.98C239.85 278.55 237.88 276.35 235.78 274.04C231.78 269.63 227.78 265.24 223.78 260.82C222.07 258.93 220.41 256.98 218.7 255.09C218.592 254.96 218.455 254.857 218.301 254.787C218.147 254.718 217.979 254.685 217.81 254.69C217.56 254.76 217.36 255.18 217.22 255.49C217.152 255.721 217.135 255.963 217.17 256.2C217.26 260.27 217.42 264.34 217.45 268.41C217.45 274.41 217.45 280.41 217.45 286.41C217.45 286.81 217.45 287.21 217.45 287.61C217.456 287.892 217.39 288.171 217.26 288.42C216.31 289.7 214.91 289.06 213.71 289.15C212.8 289.21 212.47 288.39 212.47 287.55C212.47 284.76 212.47 281.97 212.47 279.18C212.47 271.18 212.47 263.18 212.47 255.18C212.47 253.51 212.52 251.83 212.62 250.18C212.615 249.957 212.662 249.736 212.756 249.534C212.85 249.331 212.99 249.153 213.164 249.013C213.337 248.873 213.541 248.775 213.759 248.726C213.977 248.677 214.203 248.678 214.42 248.73C214.46 248.735 214.5 248.735 214.54 248.73C217.54 248.34 219.54 249.46 221.54 251.84C226.85 258.13 232.54 264.1 238.07 270.18C241.27 273.69 244.5 277.18 247.69 280.69C248.2 281.24 248.54 281.96 249.07 282.49C249.493 282.812 249.961 283.068 250.46 283.25C250.732 282.804 250.925 282.313 251.03 281.8C251.11 278.68 251.14 275.56 251.15 272.44C251.15 266.04 251.15 259.64 251.15 253.24C251.15 252.32 251.08 251.4 251.03 250.48C250.989 250.261 251 250.036 251.06 249.821C251.121 249.607 251.229 249.409 251.378 249.243C251.527 249.077 251.711 248.947 251.918 248.863C252.124 248.78 252.347 248.745 252.57 248.76C255.49 248.53 255.92 248.93 255.92 251.88C255.92 257.64 255.92 263.4 255.92 269.16L255.98 269.11Z" fill="black"/>
<path d="M375.02 290.36C371.324 290.227 367.681 289.438 364.26 288.03C358.83 285.86 354.59 282.28 352.43 276.79C351.321 274.059 350.793 271.126 350.877 268.179C350.961 265.232 351.657 262.334 352.92 259.67C355.56 253.84 360.25 250.61 366.05 248.83C370.045 247.618 374.224 247.133 378.39 247.4C381.99 247.65 385.493 248.673 388.66 250.4C392.4 252.4 395.66 254.94 397.8 258.75C398.28 259.6 398.71 260.68 397.87 261.25C396.83 261.782 395.702 262.121 394.54 262.25C394.39 262.25 394.06 261.77 393.93 261.46C392.25 257.46 389.05 255.02 385.18 253.46C381.259 251.902 377.01 251.349 372.82 251.85C366.94 252.47 361.82 254.59 358.26 259.58C356.17 262.52 355.61 265.95 355.66 269.47C355.637 271.886 356.205 274.271 357.315 276.417C358.426 278.563 360.044 280.404 362.03 281.78C364.05 283.215 366.289 284.313 368.66 285.03C373.518 286.632 378.719 286.887 383.71 285.77C387.05 284.95 390.54 284.01 393.07 281.26C393.68 280.59 394.6 280.17 395.14 279.46C396.279 277.937 397.337 276.355 398.31 274.72C398.71 274.07 399.05 273.87 399.74 274.18C400.145 274.351 400.563 274.489 400.99 274.59C402.6 275.04 402.91 275.67 402.19 277.23C399.68 282.68 395.35 286.23 389.91 288.39C385.57 290.13 381.04 290.62 375.02 290.36Z" fill="black"/>
<path d="M316.16 248.73H335.82C337.27 248.73 337.82 249.45 337.82 251.34C337.82 252.47 337.18 253.07 335.87 253.07H321.95H321.23C318.58 253.07 318.53 253.18 318.54 255.84V287.39C318.54 288.83 318.17 289.17 316.75 289.09C313.75 288.92 313.75 288.92 313.75 285.81C313.75 275.53 313.75 265.254 313.75 254.98C313.75 253.4 313.13 252.85 311.69 252.88C308.02 252.97 304.35 253 300.69 253.04C299.14 253.04 297.58 253.04 296.02 253.04C294.9 253.04 294.47 252.41 294.45 251.36C294.4 249.11 294.84 248.76 297.09 248.81C299.89 248.87 302.69 248.81 305.48 248.81H316.16V248.73Z" fill="black"/>
<path d="M52.4599 269.15V286.91C52.4599 289.04 52.3098 289.17 50.2198 289.14H49.4998C47.9498 289.14 47.5898 288.78 47.5898 287.25L47.6599 277.03C47.6599 268.204 47.6599 259.374 47.6599 250.54C47.6599 249.03 48.0699 248.64 49.6599 248.7C52.5299 248.81 52.5399 248.83 52.5399 251.7V269.09L52.4599 269.15Z" fill="black"/>
<path d="M340.07 268.82C340.07 262.7 340.07 256.587 340.07 250.48C340.07 249.3 340.51 248.82 341.71 248.71H341.82C344.64 248.53 344.9 248.8 344.9 251.64C344.9 261.874 344.9 272.104 344.9 282.33C344.9 284.13 344.95 285.92 344.98 287.72C345.006 287.899 344.989 288.081 344.931 288.253C344.874 288.424 344.777 288.579 344.649 288.706C344.521 288.834 344.365 288.929 344.193 288.985C344.021 289.042 343.839 289.057 343.66 289.03C340.09 289.18 340.08 289.19 340.07 285.56C340.07 279.97 340.07 274.37 340.07 268.78V268.82Z" fill="black"/>
<path d="M148 220.03C147.63 220.94 147.23 221.84 146.87 222.76C145.64 225.91 144.44 229.07 143.18 232.21C142.935 232.632 142.64 233.021 142.3 233.37C141.93 232.98 141.4 232.67 141.21 232.21C139.6 228.42 138.06 224.61 136.49 220.81C136.33 220.41 136.16 220.03 135.99 219.64H135.64C135.487 220.076 135.377 220.524 135.31 220.98C135.13 223.98 135 226.98 134.83 229.98C134.767 230.418 134.838 230.865 135.032 231.263C135.226 231.66 135.536 231.99 135.92 232.21C136.23 232.41 136.39 232.86 136.62 233.21C136.24 233.42 135.86 233.78 135.46 233.81C134.341 233.89 133.218 233.89 132.1 233.81C131.74 233.81 131.41 233.42 131.1 233.22C131.34 232.9 131.56 232.58 131.82 232.27C132.29 231.72 133.08 231.27 133.21 230.62C133.567 228.703 133.814 226.766 133.95 224.82C134.11 222.82 134.05 220.74 134.26 218.72C134.388 218.137 134.375 217.531 134.222 216.954C134.069 216.376 133.78 215.844 133.38 215.4C132.72 214.73 132.99 214.34 133.78 214.17C134.524 214.016 135.3 214.149 135.95 214.545C136.6 214.94 137.075 215.568 137.28 216.3C138.08 218.6 139.01 220.86 139.89 223.13C140.53 224.77 141.14 226.41 141.84 228.02C142 228.4 142.45 228.66 142.76 228.97C143.08 228.65 143.55 228.38 143.71 227.97C144.71 225.47 145.56 222.97 146.5 220.45C147.19 218.62 147.9 216.8 148.67 215.01C148.764 214.828 148.895 214.668 149.055 214.541C149.216 214.413 149.401 214.321 149.6 214.27C150.304 214.129 151.023 214.082 151.74 214.13C152.08 214.13 152.39 214.46 152.74 214.64C152.55 214.94 152.42 215.4 152.15 215.51C151.15 215.94 151.03 216.83 151.08 217.71C151.23 220.62 151.45 223.53 151.65 226.45C151.73 227.68 151.83 228.91 151.92 230.15C151.883 230.634 152.01 231.116 152.28 231.519C152.55 231.921 152.948 232.221 153.41 232.37C153.68 232.46 153.88 232.82 154.11 233.06C153.834 233.362 153.521 233.627 153.18 233.85C152.92 233.98 152.56 233.85 152.24 233.85C151.13 233.85 150.01 233.91 148.91 233.85C148.406 233.741 147.918 233.566 147.46 233.33C147.71 232.97 147.99 232.63 148.21 232.26C148.55 231.7 149.11 231.12 149.12 230.55C149.12 227.44 149.03 224.32 148.92 221.21C148.832 220.777 148.673 220.362 148.45 219.98L148 220.03Z" fill="black"/>
<path d="M192.1 249.03C196.62 249.03 201.1 249.03 205.65 249.03C205.867 248.994 206.09 249.007 206.302 249.068C206.514 249.13 206.71 249.24 206.873 249.388C207.037 249.536 207.165 249.72 207.247 249.924C207.33 250.129 207.365 250.35 207.35 250.57C207.35 250.73 207.35 250.89 207.35 251.05C207.35 253.42 207.03 253.74 204.65 253.73L178.989 253.64C178.516 253.674 178.042 253.572 177.625 253.347C177.207 253.121 176.862 252.782 176.63 252.367C176.398 251.953 176.289 251.481 176.315 251.007C176.342 250.533 176.503 250.076 176.78 249.69C176.932 249.498 177.125 249.342 177.344 249.231C177.564 249.121 177.804 249.059 178.05 249.05C182.73 249 187.4 249.05 192.05 249.05L192.1 249.03Z" fill="black"/>
<path d="M275.39 249.03H288.66C290.2 249.03 290.59 249.34 290.66 250.72C290.83 252.9 290.56 253.45 288.93 253.58C287.47 253.7 285.93 253.58 284.51 253.58H262.27C260.44 253.58 260.03 253.16 259.89 251.34C259.75 249.52 260.43 249.02 262.19 249.04C266.59 249.04 270.99 249.04 275.39 249.04V249.03Z" fill="black"/>
<path d="M191.99 284.56C196.62 284.56 201.25 284.56 205.89 284.56C206.84 284.56 207.34 284.97 207.33 285.89C207.33 288.46 207.84 289.17 204.62 289.14C198.83 289.09 193.04 289.14 187.25 289.14C184.3 289.14 181.35 289.14 178.4 289.2C177.11 289.2 176.58 288.71 176.57 287.4C176.57 284.6 176.57 284.63 179.41 284.64C183.6 284.64 187.8 284.64 191.99 284.64V284.56Z" fill="black"/>
<path d="M275.5 284.56C280.06 284.56 284.61 284.56 289.17 284.56C290.17 284.56 290.59 285.01 290.68 285.98C290.96 288.91 290.87 289.09 287.98 289.11C280.14 289.11 272.31 289.11 264.47 289.11C263.63 289.11 262.79 289.19 261.95 289.17C260.56 289.17 260.01 288.57 259.95 287.17C259.95 286.85 259.95 286.53 259.95 286.17C259.95 284.89 260.36 284.44 261.65 284.44H275.56L275.5 284.56Z" fill="black"/>
<path d="M275.48 266.43C280.07 266.43 284.66 266.43 289.25 266.43C290.37 266.43 290.76 266.93 290.71 267.95C290.71 268.15 290.71 268.35 290.71 268.55C290.64 270.83 290.37 270.99 288.09 270.98C280.98 270.92 273.87 270.98 266.76 270.98C265.04 270.98 263.33 270.98 261.61 271.04C261.39 271.069 261.167 271.05 260.955 270.985C260.744 270.919 260.549 270.808 260.384 270.66C260.22 270.511 260.09 270.329 260.002 270.125C259.915 269.922 259.873 269.702 259.88 269.48C259.84 268.961 259.84 268.439 259.88 267.92C259.96 266.81 260.53 266.34 261.68 266.35C266.27 266.35 270.86 266.35 275.45 266.35L275.48 266.43Z" fill="black"/>
<path d="M192 270.97H178.58C176.95 270.97 176.53 270.55 176.58 268.91C176.58 268.47 176.58 268.03 176.58 267.59C176.573 267.399 176.609 267.208 176.684 267.032C176.76 266.856 176.873 266.699 177.017 266.572C177.16 266.445 177.33 266.351 177.514 266.297C177.697 266.243 177.891 266.231 178.08 266.26C186.02 266.26 193.97 266.37 201.91 266.4C203.18 266.4 204.46 266.32 205.73 266.28C205.931 266.257 206.134 266.278 206.326 266.34C206.518 266.403 206.695 266.506 206.844 266.642C206.993 266.779 207.11 266.946 207.189 267.132C207.268 267.318 207.306 267.518 207.3 267.72C207.3 268.08 207.3 268.44 207.3 268.8C207.3 270.58 207 270.9 205.23 270.9H191.93L192 270.97Z" fill="black"/>
<path d="M118.959 227.57C119.127 228.114 119.201 228.682 119.179 229.25C118.871 230.649 118.439 232.018 117.889 233.34C117.714 233.561 117.49 233.739 117.236 233.861C116.981 233.982 116.702 234.043 116.419 234.04C112.799 234.04 109.169 233.89 105.539 233.81C105.309 233.81 105.039 233.92 104.829 233.81C104.459 233.67 103.909 233.49 103.829 233.22C103.817 233.017 103.855 232.813 103.941 232.628C104.026 232.443 104.156 232.283 104.319 232.16C104.826 231.872 105.238 231.442 105.504 230.924C105.771 230.405 105.88 229.82 105.819 229.24C105.819 225.68 105.759 222.12 105.759 218.56C105.819 218.001 105.72 217.437 105.475 216.931C105.229 216.425 104.846 215.999 104.369 215.7C104.079 215.52 104.009 214.99 103.839 214.61C104.181 214.388 104.561 214.232 104.959 214.15C106.959 214.15 109.029 214.23 111.059 214.21C112.376 214.193 113.692 214.107 114.999 213.95C115.899 213.85 116.609 214.02 116.939 214.95C117.414 216.177 117.821 217.429 118.159 218.7C118.269 219.15 117.929 219.7 117.799 220.21C117.391 219.961 117.024 219.651 116.709 219.29C116.372 218.645 116.081 217.977 115.839 217.29C115.667 216.751 115.312 216.288 114.836 215.982C114.36 215.675 113.792 215.544 113.229 215.61C112.229 215.68 111.149 215.61 110.109 215.61C108.789 215.61 108.169 216.2 108.109 217.48C108.109 218.6 108.109 219.72 108.109 220.84C108.189 222.12 108.849 222.7 110.319 222.93C111.469 223.12 111.969 222.43 112.319 221.49C112.533 221.108 112.795 220.755 113.099 220.44C113.383 220.796 113.615 221.19 113.789 221.61C114.039 222.743 114.23 223.888 114.359 225.04C114.31 225.393 114.191 225.733 114.009 226.04C113.659 225.907 113.323 225.736 113.009 225.53C112.793 225.298 112.602 225.043 112.439 224.77C111.509 223.67 110.679 223.52 109.089 224.13C108.089 224.53 108.089 225.43 108.039 226.33C108.039 227.57 107.979 228.81 108.039 230.05C108.008 230.361 108.051 230.675 108.163 230.967C108.275 231.258 108.454 231.52 108.686 231.73C108.917 231.94 109.194 232.093 109.495 232.176C109.797 232.259 110.113 232.271 110.419 232.21C111.699 232.15 112.979 232.21 114.249 232.14C116.249 232.14 116.709 231.68 117.309 229.77C117.559 228.95 117.949 228.16 118.309 227.35L118.959 227.57Z" fill="black"/>
<path d="M367.77 225.93C367.574 227.347 367.065 228.703 366.28 229.898C365.495 231.093 364.453 232.098 363.23 232.84C361.731 233.754 359.978 234.161 358.23 234C354.11 233.75 351.73 231.27 350.23 227.76C349.893 226.824 349.727 225.835 349.74 224.84C349.56 221.16 350.51 218.01 353.6 215.58C354.895 214.547 356.476 213.937 358.13 213.83C359.426 213.751 360.724 213.967 361.924 214.462C363.125 214.958 364.197 215.72 365.06 216.69C367.04 218.97 367.88 221.09 367.77 225.93ZM358.18 215.39C357.5 215.59 356.81 215.75 356.18 216C354.41 216.67 353.58 218.09 352.8 219.77C351.55 222.49 352.73 228.64 355.3 230.91C355.838 231.417 356.472 231.811 357.165 232.07C357.857 232.33 358.594 232.449 359.333 232.421C360.071 232.393 360.797 232.219 361.468 231.908C362.139 231.597 362.741 231.156 363.24 230.61C364.15 229.596 364.793 228.371 365.111 227.046C365.429 225.721 365.411 224.337 365.06 223.02C364.878 222.079 364.613 221.155 364.27 220.26C363.19 217.69 361.08 215.49 358.18 215.39Z" fill="black"/>
<path d="M383.77 224.9C383.77 226.65 383.77 228.41 383.77 230.17C383.738 230.563 383.814 230.957 383.991 231.31C384.167 231.662 384.436 231.96 384.77 232.17C385.08 232.38 385.17 232.94 385.36 233.35C384.977 233.575 384.562 233.74 384.13 233.84C383.252 233.905 382.37 233.875 381.5 233.75C381.301 233.705 381.116 233.616 380.957 233.49C380.797 233.363 380.669 233.203 380.58 233.02C380.5 232.81 380.83 232.26 381.11 232.11C381.475 231.938 381.781 231.663 381.991 231.318C382.201 230.973 382.305 230.574 382.29 230.17C382.36 227.38 382.4 224.58 382.43 221.79C382.43 220.55 382.43 219.31 382.43 218.07C382.495 217.572 382.411 217.066 382.188 216.616C381.966 216.166 381.615 215.791 381.18 215.54C380.91 215.38 380.82 214.91 380.65 214.54C380.931 214.358 381.238 214.217 381.56 214.12C382.488 213.977 383.438 214.13 384.274 214.557C385.111 214.984 385.791 215.664 386.22 216.5C387.96 219.27 390.02 221.83 391.92 224.5C392.56 225.41 393.07 226.42 393.72 227.33C394.043 227.644 394.414 227.904 394.82 228.1C395.06 227.72 395.51 227.34 395.52 226.96C395.57 223.96 395.63 220.96 395.52 217.96C395.47 217.11 394.73 216.29 394.31 215.45C394.16 215.15 394.02 214.84 393.87 214.54C394.159 214.354 394.476 214.216 394.81 214.13C395.766 214.08 396.724 214.08 397.68 214.13C397.83 214.146 397.974 214.196 398.102 214.276C398.23 214.355 398.339 214.463 398.42 214.59C398.427 214.736 398.401 214.882 398.342 215.016C398.283 215.15 398.193 215.268 398.08 215.36C397.725 215.653 397.448 216.029 397.273 216.455C397.099 216.881 397.032 217.343 397.08 217.8C397.08 222.56 397.02 227.31 396.93 232.07C396.825 232.545 396.639 232.999 396.38 233.41C395.95 233.19 395.38 233.09 395.1 232.74C393.16 230.1 391.3 227.41 389.4 224.74C387.96 222.74 386.51 220.74 385.03 218.74C384.85 218.49 384.45 218.41 384.16 218.25C383.964 218.524 383.825 218.833 383.75 219.16C383.75 221.04 383.75 222.92 383.75 224.8L383.77 224.9Z" fill="black"/>
<path d="M10.1299 213.97C11.4761 213.878 12.8209 214.169 14.0085 214.81C15.1961 215.45 16.1778 216.415 16.8399 217.59C17.0599 217.96 17.3699 218.44 17.2799 218.78C17.1199 219.42 16.8399 220.31 16.3699 220.51C15.5499 220.86 15.3699 219.91 15.0599 219.32C14.689 218.492 14.2613 217.69 13.7799 216.92C12.7799 215.43 11.2699 215.38 9.69986 215.67C9.07217 215.708 8.4785 215.968 8.02568 216.405C7.57287 216.841 7.29067 217.424 7.22986 218.05C7.06266 218.723 7.15112 219.434 7.47811 220.046C7.80509 220.657 8.34734 221.126 8.99986 221.36C10.6499 222.06 12.3899 222.56 13.9999 223.29C16.6199 224.47 18.3799 226.77 17.6199 229.66C17.3293 230.712 16.7452 231.659 15.9358 232.39C15.1264 233.122 14.1253 233.607 13.0499 233.79C11.5669 234.221 9.98928 234.203 8.51703 233.736C7.04477 233.27 5.74411 232.377 4.77987 231.17C4.42063 230.739 4.16675 230.229 4.03832 229.683C3.90989 229.136 3.91041 228.567 4.03986 228.02C4.07103 227.854 4.13935 227.696 4.23976 227.559C4.34017 227.422 4.47008 227.31 4.61986 227.23C4.79056 227.209 4.96401 227.231 5.12343 227.296C5.28284 227.361 5.42284 227.466 5.52987 227.6C5.87931 228.179 6.1421 228.806 6.30986 229.46C7.13986 232.6 11.3099 233.31 13.5899 231.46C13.9732 231.152 14.2814 230.76 14.4913 230.315C14.7011 229.87 14.8072 229.383 14.8014 228.891C14.7956 228.399 14.6782 227.914 14.4579 227.474C14.2376 227.034 13.9203 226.65 13.5299 226.35C12.5064 225.671 11.4217 225.088 10.2899 224.61C9.28986 224.13 8.19987 223.81 7.20987 223.3C6.29873 222.836 5.5434 222.115 5.03698 221.227C4.53055 220.338 4.29518 219.321 4.35986 218.3C4.5806 217.28 5.09649 216.348 5.84329 215.619C6.59009 214.89 7.53482 214.396 8.55986 214.2C9.09986 214.03 9.65986 214.03 10.1299 213.97Z" fill="black"/>
<path d="M49 228.62L49.92 227.17C50.3885 227.539 50.8115 227.962 51.18 228.43C51.4344 229.017 51.6547 229.618 51.84 230.23C52.6 231.9 54.54 232.68 56.84 232.3C57.6424 232.213 58.3902 231.852 58.9583 231.278C59.5263 230.705 59.8799 229.954 59.96 229.15C60.23 227.35 58.62 225.75 56.42 224.87C55.23 224.39 53.99 224.05 52.84 223.5C52.0827 223.147 51.4029 222.648 50.84 222.03C48.13 218.96 49.84 215.38 53.18 214.39C54.3584 213.972 55.6234 213.857 56.8577 214.058C58.092 214.259 59.2555 214.769 60.24 215.54C61.1004 216.359 61.8081 217.324 62.33 218.39C62.5055 218.879 62.484 219.417 62.27 219.89C61.95 220.81 61.08 220.89 60.56 220.06C60.3128 219.56 60.112 219.038 59.96 218.5C58.74 215.22 56.12 214.99 53.52 216.23C51.7 217.09 51.94 220.23 53.89 221.23C55.52 222.05 57.31 222.56 59.01 223.23C62.48 224.66 64.39 228.23 61.77 231.64C61.0232 232.568 60.0439 233.28 58.9318 233.705C57.8198 234.13 56.6149 234.253 55.44 234.06C54.4874 234.01 53.5544 233.771 52.6958 233.355C51.8371 232.939 51.0702 232.356 50.44 231.64C49.6597 230.806 49.1567 229.752 49 228.62Z" fill="black"/>
<path d="M252.429 232.3C253.029 232.3 253.629 232.3 254.219 232.3C256.489 232.37 257.089 231.98 257.919 229.88C257.971 229.644 258.051 229.416 258.159 229.2C258.469 228.75 258.819 228.33 259.159 227.9C259.339 228.46 259.729 229.06 259.649 229.58C259.451 230.682 259.154 231.763 258.759 232.81C258.643 233.22 258.383 233.574 258.026 233.807C257.67 234.04 257.241 234.137 256.819 234.08C254.673 233.96 252.523 233.87 250.369 233.81C248.819 233.81 247.259 233.81 245.709 233.81C244.659 233.81 244.189 232.88 244.819 231.95C245.449 231.02 246.269 230.05 246.969 229.07C249.689 225.217 252.399 221.364 255.099 217.51C255.779 216.51 255.369 215.64 254.179 215.62C252.542 215.56 250.903 215.59 249.269 215.71C247.829 215.83 247.489 217.14 247.009 218.22C246.863 218.715 246.682 219.2 246.469 219.67C246.383 219.793 246.267 219.892 246.133 219.958C245.998 220.024 245.849 220.056 245.699 220.05C245.564 219.988 245.446 219.893 245.356 219.774C245.265 219.656 245.204 219.517 245.179 219.37C245.175 218.817 245.245 218.265 245.389 217.73C245.588 216.919 245.829 216.118 246.109 215.33C246.206 214.885 246.463 214.49 246.832 214.223C247.201 213.955 247.656 213.833 248.109 213.88C251.289 214.08 254.469 214.13 257.649 214.28C258.159 214.28 258.999 214.39 259.099 214.67C259.164 214.943 259.171 215.227 259.12 215.502C259.068 215.778 258.959 216.04 258.799 216.27C255.689 220.72 252.529 225.14 249.379 229.56C249.189 229.82 248.879 230 248.759 230.28C248.549 230.75 248.199 231.4 248.369 231.74C248.539 232.08 249.259 232.28 249.759 232.33C250.639 232.375 251.52 232.375 252.399 232.33L252.429 232.3Z" fill="black"/>
<path d="M287.45 233.81C286.73 233.81 286 233.86 285.29 233.81C284.41 233.74 284.19 233.27 284.62 232.51C285.62 230.7 285.62 229.86 284.19 228.38C283.747 227.939 283.163 227.667 282.54 227.61C281.12 227.52 279.68 227.67 278.25 227.61C277.686 227.595 277.131 227.758 276.664 228.076C276.198 228.393 275.843 228.85 275.65 229.38C275.15 230.45 274.86 231.55 275.92 232.58C276.56 233.19 276.31 233.78 275.39 233.83C274.272 233.882 273.152 233.849 272.04 233.73C271.859 233.684 271.691 233.598 271.547 233.479C271.404 233.359 271.288 233.21 271.21 233.04C271.14 232.9 271.51 232.39 271.77 232.29C272.305 232.058 272.783 231.711 273.17 231.274C273.557 230.836 273.844 230.32 274.01 229.76C275.55 225.76 277.09 221.81 278.56 217.76C278.761 217.048 278.802 216.3 278.68 215.57C278.53 214.33 278.89 213.93 280.13 214.16C280.763 214.252 281.356 214.525 281.839 214.945C282.321 215.365 282.672 215.916 282.85 216.53C284.43 220.87 286.06 225.21 287.85 229.53C288.45 230.541 289.176 231.472 290.01 232.3C290.2 232.55 290.47 232.93 290.4 233.17C290.329 233.323 290.224 233.457 290.092 233.561C289.96 233.666 289.805 233.737 289.64 233.77C288.911 233.83 288.18 233.844 287.45 233.81ZM280.52 217.92L279.95 217.86C279.13 220.28 278.26 222.69 277.53 225.13C277.31 225.87 277.92 226.27 278.69 226.3C279.46 226.33 280.28 226.37 281.08 226.4C282.96 226.47 283.63 225.58 282.99 223.8C282.41 222.2 281.77 220.61 281.13 219.03C280.954 218.646 280.75 218.275 280.52 217.92Z" fill="black"/>
<path d="M168.76 233.86C168.124 233.848 167.49 233.795 166.86 233.7C166.19 233.55 165.93 232.95 166.54 232.59C169.54 230.79 169.73 227.48 170.95 224.74C171.691 223.113 172.336 221.443 172.88 219.74C173.288 218.388 173.553 216.997 173.67 215.59C173.77 214.46 174.03 214.06 175.17 214.16C175.754 214.199 176.313 214.416 176.769 214.783C177.225 215.15 177.557 215.648 177.72 216.21C179.34 220.54 180.89 224.9 182.61 229.21C183.211 230.316 183.932 231.352 184.76 232.3C184.96 232.6 185.28 233.02 185.2 233.3C185.099 233.457 184.964 233.589 184.805 233.686C184.645 233.783 184.466 233.843 184.28 233.86C182.97 233.94 181.65 233.96 180.34 233.93C180.147 233.919 179.959 233.869 179.787 233.781C179.614 233.693 179.462 233.57 179.34 233.42C179.23 233.26 179.44 232.73 179.65 232.52C180.07 232.137 180.328 231.609 180.372 231.043C180.417 230.476 180.244 229.914 179.89 229.47C178.89 227.78 178.54 227.64 177 227.75C175.66 227.85 174.3 227.75 172.95 227.75C172.418 227.725 171.895 227.903 171.49 228.25C170.886 229.033 170.441 229.926 170.18 230.88C170.06 231.35 170.59 231.98 170.82 232.53C170.95 232.84 171.26 233.23 171.16 233.42C171.054 233.551 170.922 233.658 170.772 233.736C170.622 233.813 170.458 233.859 170.29 233.87C169.771 233.91 169.25 233.91 168.73 233.87L168.76 233.86ZM175.43 217.68C175.132 218.031 174.867 218.409 174.64 218.81C173.96 220.5 173.29 222.21 172.64 223.92C172.511 224.3 172.45 224.699 172.46 225.1C172.46 226 172.85 226.52 173.86 226.45C174.526 226.402 175.195 226.402 175.86 226.45C177.79 226.57 178.64 225.38 177.86 223.57C177.29 222.18 176.72 220.79 176.13 219.4C176 218.9 175.77 218.42 175.43 217.68Z" fill="black"/>
<path d="M305.46 221.5C305.37 225.38 305.86 228.36 308.59 230.56C310.88 232.4 315.2 231.84 316.82 229.4C316.944 229.151 317.11 228.924 317.31 228.73C317.632 228.598 317.967 228.501 318.31 228.44C318.429 228.76 318.487 229.099 318.48 229.44C318.136 230.631 317.438 231.69 316.479 232.475C315.52 233.261 314.345 233.737 313.11 233.84C312.156 233.892 311.2 233.869 310.25 233.77C306.67 233.32 304.71 231.03 303.47 227.82C302.09 224.23 302.72 220.96 304.65 217.77C305.239 216.785 306.039 215.943 306.993 215.304C307.947 214.665 309.031 214.246 310.166 214.077C311.301 213.908 312.46 213.992 313.559 214.325C314.658 214.657 315.669 215.23 316.52 216C317.57 216.93 318.52 218.16 318.2 219.76C318.15 220.037 318.039 220.3 317.877 220.529C317.715 220.759 317.504 220.951 317.26 221.09C316.92 221.2 316.26 220.7 315.92 220.29C315.526 219.738 315.228 219.122 315.04 218.47C314.857 217.701 314.437 217.008 313.84 216.49C313.242 215.971 312.497 215.653 311.71 215.58C310.833 215.448 309.936 215.558 309.118 215.9C308.3 216.243 307.591 216.803 307.07 217.52C306.05 218.9 305.23 220.35 305.46 221.5Z" fill="black"/>
<path d="M84.2201 223.66C84.2201 225.66 84.2701 227.58 84.2201 229.54C84.1294 230.096 84.2423 230.666 84.538 231.146C84.8338 231.625 85.2926 231.982 85.8301 232.15C86.2501 232.31 86.5301 232.86 86.8301 233.24C86.388 233.51 85.9051 233.706 85.4002 233.82C83.6902 233.89 81.9702 233.89 80.2602 233.82C79.8402 233.82 79.4302 233.42 79.0202 233.2C79.3302 232.85 79.5702 232.32 79.9602 232.2C80.508 232.064 80.9889 231.736 81.3155 231.275C81.6421 230.815 81.7927 230.252 81.7402 229.69C81.7402 225.85 81.8402 222.02 81.9102 218.18C81.9861 217.66 81.8709 217.131 81.5858 216.689C81.3008 216.248 80.8653 215.925 80.3601 215.78C79.0001 215.33 78.0301 215.56 77.3601 216.72C76.9201 217.45 76.8301 218.38 76.4501 219.16C76.2401 219.59 75.7602 219.87 75.4002 220.22C75.1902 219.76 74.7201 219.22 74.8101 218.83C75.1202 217.429 75.5795 216.064 76.1802 214.76C76.3744 214.512 76.6262 214.315 76.9137 214.186C77.2011 214.057 77.5157 214 77.8301 214.02C81.3153 214.447 84.841 214.424 88.3202 213.95C88.6033 213.943 88.8837 214.006 89.1367 214.134C89.3896 214.261 89.6072 214.449 89.7702 214.68C90.351 216.245 90.832 217.845 91.2102 219.47C91.2802 219.76 90.8702 220.18 90.6802 220.53C90.4002 220.28 90.0202 220.08 89.8802 219.76C89.4902 218.89 89.2402 217.95 88.8802 217.07C88.5422 216.416 87.961 215.921 87.2616 215.691C86.5622 215.461 85.8004 215.515 85.1401 215.84C84.8979 216.055 84.7006 216.316 84.5599 216.608C84.4191 216.9 84.3376 217.217 84.3202 217.54C84.2202 219.54 84.3202 221.62 84.3202 223.66H84.2201Z" fill="black"/>
<path d="M206.72 329.72C206.188 329.776 205.654 329.803 205.12 329.8C204.22 329.73 203.84 329.01 204.49 328.43C205.61 327.43 205.62 326.21 205.61 324.92C205.61 322.48 205.66 320.04 205.54 317.61C205.43 316.726 205.137 315.875 204.68 315.11C204.18 314.17 204.27 313.54 205.19 313.56C207.864 313.549 210.537 313.713 213.19 314.05C213.806 314.191 214.383 314.469 214.876 314.864C215.37 315.259 215.767 315.76 216.039 316.331C216.312 316.901 216.451 317.526 216.448 318.158C216.445 318.79 216.298 319.413 216.02 319.98C215.645 320.657 215.073 321.205 214.38 321.55C213.62 321.96 213.51 322.39 213.86 323.08C214.45 324.25 214.97 325.46 215.66 326.57C216.154 327.216 216.706 327.816 217.31 328.36C217.53 328.6 217.9 328.92 217.85 329.12C217.784 329.277 217.686 329.417 217.562 329.532C217.438 329.648 217.291 329.736 217.13 329.79C216.821 329.877 216.499 329.901 216.181 329.863C215.862 329.824 215.555 329.723 215.276 329.565C214.997 329.407 214.753 329.195 214.556 328.942C214.359 328.689 214.214 328.4 214.13 328.09C213.74 326.835 213.196 325.632 212.51 324.51C211.965 323.794 211.204 323.272 210.34 323.02C208.56 322.53 207.71 323.32 207.67 325.16C207.67 326.4 207.53 327.59 208.85 328.42C209.5 328.84 209.17 329.64 208.36 329.78C208.081 329.805 207.799 329.805 207.52 329.78C207.23 329.77 206.96 329.74 206.72 329.72ZM207.72 318.17C207.72 318.69 207.72 319.17 207.72 319.72C207.78 321.23 208.51 321.9 210.02 321.72C210.698 321.629 211.367 321.482 212.02 321.28C212.541 321.166 213.022 320.912 213.41 320.546C213.798 320.18 214.079 319.715 214.222 319.201C214.366 318.687 214.368 318.144 214.226 317.629C214.085 317.115 213.806 316.648 213.42 316.28C212.522 315.58 211.506 315.045 210.42 314.7C210.138 314.575 209.83 314.52 209.522 314.54C209.214 314.561 208.916 314.656 208.653 314.817C208.39 314.979 208.171 315.202 208.013 315.467C207.856 315.733 207.766 316.032 207.75 316.34C207.683 316.948 207.653 317.559 207.66 318.17H207.72Z" fill="black"/>
<path d="M206.25 223.78C206.25 225.78 206.25 227.86 206.25 229.9C206.186 230.397 206.311 230.9 206.6 231.309C206.889 231.718 207.321 232.004 207.81 232.11C208.24 232.23 208.54 232.79 208.91 233.11C208.46 233.34 208.03 233.74 207.57 233.77C205.943 233.884 204.31 233.907 202.68 233.84C202.137 233.713 201.621 233.486 201.16 233.17C201.448 232.794 201.784 232.458 202.16 232.17C202.63 231.983 203.034 231.663 203.324 231.249C203.613 230.835 203.775 230.345 203.79 229.84C203.79 225.68 203.79 221.524 203.79 217.37C203.816 216.941 203.676 216.517 203.399 216.188C203.121 215.859 202.728 215.648 202.3 215.6C201.3 215.47 200.12 215.21 199.5 216.37C199.08 217.16 198.92 218.1 198.5 218.91C198.199 219.35 197.839 219.747 197.43 220.09C197.25 219.61 196.84 219.09 196.91 218.67C197.159 217.376 197.493 216.1 197.91 214.85C197.966 214.668 198.058 214.498 198.18 214.351C198.302 214.205 198.452 214.084 198.622 213.996C198.792 213.909 198.977 213.856 199.167 213.841C199.358 213.827 199.549 213.85 199.73 213.91C203.172 214.415 206.669 214.415 210.11 213.91C211.11 213.77 211.84 214.01 212.11 215.03C212.536 216.321 212.893 217.632 213.18 218.96C213.26 219.38 212.85 219.91 212.66 220.38C212.32 220.06 211.86 219.79 211.66 219.38C211.39 218.727 211.156 218.06 210.96 217.38C210.795 216.796 210.43 216.289 209.93 215.946C209.429 215.602 208.825 215.445 208.22 215.5C207.94 215.476 207.657 215.515 207.394 215.613C207.13 215.712 206.891 215.868 206.695 216.069C206.499 216.271 206.35 216.514 206.259 216.781C206.169 217.047 206.138 217.331 206.17 217.61C206.17 218.61 206.17 219.69 206.22 220.73C206.27 221.77 206.22 222.73 206.22 223.73L206.25 223.78Z" fill="black"/>
<path d="M249.17 321.77C249.11 324.96 248.08 327.71 245.08 329.2C244.052 329.717 242.918 329.986 241.768 329.984C240.617 329.983 239.484 329.711 238.457 329.192C237.431 328.673 236.541 327.92 235.859 326.994C235.177 326.068 234.722 324.994 234.53 323.86C234.116 321.729 234.342 319.523 235.18 317.52C235.691 316.478 236.445 315.573 237.379 314.883C238.313 314.192 239.398 313.736 240.545 313.553C241.692 313.37 242.866 313.465 243.968 313.83C245.07 314.195 246.069 314.819 246.88 315.65C247.665 316.456 248.274 317.416 248.668 318.469C249.063 319.523 249.233 320.647 249.17 321.77ZM236.49 321.03C236.459 323.135 237.167 325.184 238.49 326.82C238.904 327.314 239.414 327.717 239.99 328.005C240.566 328.293 241.195 328.46 241.837 328.496C242.48 328.531 243.124 328.435 243.728 328.212C244.332 327.989 244.884 327.645 245.35 327.2C248.19 324.2 247.25 317.98 244.12 315.81C242.27 314.52 239.91 313.87 237.75 316.52C236.66 317.88 236.66 319.46 236.49 321.03Z" fill="black"/>
<path d="M81.9698 320.39C82.0303 319.391 82.0303 318.389 81.9698 317.39C81.8606 316.58 81.6101 315.794 81.2298 315.07C80.7298 314.13 80.8198 313.77 81.8798 313.63C82.3467 313.52 82.8329 313.52 83.2998 313.63C83.5798 313.73 83.9698 314.35 83.8898 314.52C82.7398 316.77 83.3798 319.16 83.2698 321.52C83.1598 323.88 83.2098 326.08 83.1298 328.35C83.1298 328.73 82.7998 329.1 82.6298 329.48C82.2298 329.26 81.7098 329.13 81.4698 328.8C79.0798 325.51 76.7598 322.16 74.3598 318.87C73.846 318.329 73.2684 317.852 72.6398 317.45C72.4729 318.181 72.3592 318.923 72.2998 319.67C72.2998 321.67 72.3798 323.74 72.2998 325.77C72.2375 326.201 72.2805 326.641 72.425 327.052C72.5695 327.463 72.8113 327.833 73.1298 328.13C73.4098 328.38 73.6998 328.95 73.5898 329.21C73.4798 329.47 72.9098 329.62 72.5198 329.77C72.3263 329.82 72.1233 329.82 71.9298 329.77C71.2998 329.63 70.6698 329.46 70.0498 329.3C70.7086 327.968 71.0864 326.515 71.1598 325.03C71.1598 322.71 71.1598 320.39 71.0598 318.03C70.9773 316.977 70.7589 315.938 70.4098 314.94C70.0698 313.94 70.2898 313.51 71.4098 313.52C71.9331 313.545 72.4419 313.7 72.8906 313.971C73.3392 314.241 73.7135 314.619 73.9798 315.07C76.1398 318.07 78.2398 321.15 80.4098 324.16C80.7252 324.481 81.0857 324.754 81.4798 324.97C81.7045 324.584 81.8697 324.166 81.9698 323.73C82.0298 322.62 81.9698 321.5 81.9698 320.38V320.39Z" fill="black"/>
<path d="M347.66 313.4C350.66 313.54 352.79 313.97 354.06 316.05C354.379 316.596 354.564 317.209 354.6 317.84C354.576 318.043 354.506 318.238 354.397 318.411C354.288 318.584 354.142 318.731 353.97 318.84C353.82 318.94 353.24 318.59 353.05 318.31C352.63 317.68 352.35 316.96 351.98 316.31C351.73 315.868 351.376 315.492 350.948 315.217C350.52 314.941 350.032 314.773 349.526 314.728C349.019 314.683 348.509 314.761 348.039 314.957C347.57 315.152 347.155 315.459 346.83 315.85C346.07 316.85 346.02 317.95 347.04 318.72C348.073 319.513 349.242 320.11 350.49 320.48C351.353 320.667 352.168 321.029 352.884 321.545C353.6 322.062 354.201 322.721 354.65 323.48C354.924 323.948 355.1 324.466 355.168 325.004C355.236 325.542 355.194 326.088 355.044 326.608C354.895 327.129 354.641 327.614 354.298 328.034C353.955 328.454 353.53 328.8 353.05 329.05C351.66 329.91 350.28 329.79 348.74 329.82C346.28 329.82 345 328.59 343.91 326.76C343.79 326.56 343.61 326.29 343.66 326.11C343.817 325.569 344.008 325.038 344.23 324.52C344.61 324.84 345 325.14 345.37 325.52C345.47 325.61 345.48 325.81 345.55 325.96C346.63 328.47 348.04 329.13 350.65 328.33C351.193 328.082 351.668 327.706 352.034 327.234C352.4 326.762 352.645 326.208 352.75 325.62C352.576 325.011 352.274 324.446 351.866 323.962C351.457 323.477 350.951 323.085 350.38 322.81C348.912 322.301 347.482 321.69 346.1 320.98C345.3 320.584 344.673 319.908 344.338 319.081C344.002 318.254 343.982 317.332 344.28 316.49C344.79 314.65 346.56 313.37 347.66 313.4Z" fill="black"/>
<path d="M291.12 329.83C290.2 329.992 289.253 329.875 288.401 329.493C287.549 329.112 286.831 328.484 286.34 327.69C285.916 326.943 285.637 326.122 285.52 325.27C285.535 325.105 285.592 324.946 285.685 324.808C285.777 324.67 285.903 324.558 286.05 324.48C286.219 324.456 286.391 324.476 286.55 324.537C286.709 324.598 286.85 324.699 286.96 324.83C287.253 325.298 287.485 325.803 287.65 326.33C288.06 327.49 288.65 328.59 289.99 328.59C291.52 328.59 293.18 328.46 294.11 326.89C294.301 326.57 294.422 326.211 294.462 325.84C294.502 325.468 294.461 325.092 294.343 324.738C294.224 324.383 294.03 324.059 293.774 323.787C293.518 323.514 293.206 323.301 292.86 323.16C291.86 322.63 290.7 322.33 289.64 321.86C288.14 321.2 286.64 320.54 286.18 318.68C286.026 318.099 286.001 317.49 286.107 316.898C286.212 316.306 286.446 315.744 286.792 315.251C287.138 314.759 287.587 314.348 288.108 314.047C288.63 313.746 289.21 313.563 289.81 313.51C291.018 313.316 292.256 313.482 293.37 313.989C294.484 314.497 295.423 315.321 296.07 316.36C296.338 316.7 296.489 317.118 296.5 317.55C296.563 317.794 296.527 318.054 296.4 318.271C296.272 318.489 296.064 318.647 295.82 318.71C295.576 318.774 295.316 318.738 295.099 318.611C294.881 318.483 294.723 318.274 294.66 318.03C294.18 317.35 293.9 316.53 293.47 315.82C292.74 314.61 292.09 314.52 289.87 315.04C289.391 315.143 288.968 315.418 288.678 315.812C288.389 316.207 288.254 316.693 288.3 317.18C288.243 317.726 288.384 318.273 288.695 318.724C289.007 319.175 289.469 319.5 290 319.64C290.9 319.97 291.8 320.29 292.72 320.56C295.9 321.49 297.47 324.12 296.52 326.93C295.91 328.89 294.1 329.9 291.12 329.83Z" fill="black"/>
<path d="M320.499 324.15C320.659 324.057 320.831 323.986 321.009 323.94C322.539 323.65 323.009 322.76 322.449 321.29C322.039 320.29 321.639 319.21 321.149 318.21C321.064 318.026 320.937 317.864 320.78 317.735C320.622 317.607 320.437 317.517 320.239 317.47C319.969 317.47 319.639 317.97 319.469 318.32C319.089 319.05 318.819 319.84 318.469 320.59C318.225 321.031 318.109 321.532 318.134 322.035C318.159 322.539 318.323 323.025 318.609 323.44C319.039 324.05 318.979 324.37 318.249 324.69C317.864 324.809 317.51 325.012 317.213 325.284C316.916 325.555 316.682 325.89 316.529 326.263C316.376 326.635 316.307 327.038 316.328 327.44C316.349 327.842 316.459 328.235 316.649 328.59C316.939 329.33 316.699 329.75 315.909 329.82C315.579 329.88 315.24 329.88 314.909 329.82C314.329 329.67 313.759 329.45 313.189 329.26C313.546 328.842 313.88 328.404 314.189 327.95C314.645 327.256 315.047 326.527 315.389 325.77C315.969 324.37 316.389 322.92 316.999 321.53C317.609 320.14 318.309 318.75 318.909 317.33C319.089 316.823 319.173 316.288 319.159 315.75C319.159 314.97 318.819 313.86 319.849 313.75C320.268 313.771 320.677 313.884 321.047 314.081C321.417 314.278 321.739 314.555 321.989 314.89C322.559 315.942 323.015 317.052 323.349 318.2C324.549 321.2 325.739 324.29 326.989 327.31C327.159 327.72 327.639 327.98 327.989 328.31C328.339 328.64 328.579 328.95 328.509 329.11C328.435 329.282 328.321 329.434 328.176 329.554C328.032 329.674 327.862 329.758 327.679 329.8C326.672 329.82 325.666 329.726 324.679 329.52C324.469 329.52 324.179 328.73 324.279 328.42C324.461 327.841 324.463 327.22 324.284 326.64C324.106 326.06 323.755 325.547 323.279 325.17C322.698 324.82 322.045 324.608 321.369 324.55C321.08 324.492 320.785 324.458 320.489 324.45L320.499 324.15Z" fill="black"/>
<path d="M182.42 321.52C182.42 323.08 182.42 324.64 182.42 326.2C182.38 326.64 182.477 327.082 182.697 327.464C182.917 327.847 183.25 328.153 183.65 328.34C183.95 328.49 184.1 328.9 184.33 329.2C183.98 329.41 183.64 329.79 183.33 329.81C181.98 329.86 180.62 329.81 179.27 329.81C179.092 329.773 178.925 329.698 178.78 329.589C178.634 329.48 178.515 329.34 178.43 329.18C178.36 329.03 178.7 328.48 178.95 328.4C180.28 328.01 180.43 327.02 180.42 325.86C180.42 322.94 180.42 320.03 180.36 317.11C180.36 316.19 180.36 315.11 179.36 314.78C178.835 314.627 178.271 314.669 177.775 314.898C177.278 315.128 176.882 315.53 176.66 316.03C176.364 316.681 176.107 317.349 175.89 318.03C175.733 318.286 175.538 318.516 175.31 318.71C175.08 318.47 174.76 318.26 174.64 317.97C174.36 317.29 175.35 314.05 175.96 313.62C176.196 313.485 176.468 313.423 176.74 313.44C178.45 313.44 180.15 313.63 181.85 313.63C183.22 313.63 184.59 313.44 185.96 313.45C186.187 313.467 186.407 313.536 186.604 313.652C186.8 313.768 186.966 313.929 187.09 314.12C187.549 315.181 187.908 316.282 188.16 317.41C188.24 317.76 187.85 318.23 187.68 318.64C187.353 318.359 187.058 318.044 186.8 317.7C186.463 316.908 186.037 316.156 185.53 315.46C185.27 315.198 184.957 314.995 184.612 314.866C184.267 314.736 183.897 314.683 183.53 314.71C183.05 314.85 182.59 315.86 182.53 316.52C182.39 318.19 182.48 319.88 182.48 321.52H182.42Z" fill="black"/>
<path d="M136.01 313.36C136.42 313.55 137.01 313.64 137.19 313.96C137.37 314.28 136.96 314.7 136.78 315.08C136.27 316.15 135.72 317.21 135.24 318.29C134.56 319.8 133.93 321.29 133.31 322.87C132.69 324.45 132.1 325.96 131.49 327.5C131.358 327.965 131.17 328.411 130.93 328.83C130.69 329.19 130.23 329.73 129.93 329.69C129.415 329.564 128.968 329.245 128.68 328.8C128.277 328.055 127.943 327.275 127.68 326.47C126.39 323.08 125.12 319.68 123.79 316.3C123.52 315.822 123.202 315.373 122.84 314.96C122.64 314.64 122.5 314.29 122.33 313.96C122.687 313.755 123.076 313.61 123.48 313.53C124.39 313.53 125.31 313.59 126.22 313.66C126.98 313.72 127.3 314.19 126.78 314.78C125.91 315.78 126.2 316.57 126.63 317.62C127.63 320.05 128.43 322.56 129.36 325.03C129.5 325.38 129.88 325.87 130.16 325.88C130.369 325.856 130.569 325.781 130.743 325.663C130.917 325.544 131.06 325.386 131.16 325.2C132.16 322.54 133.16 319.87 134.04 317.2C134.149 316.444 134.002 315.673 133.62 315.01C133.16 314.07 133.21 313.78 134.22 313.69L135.89 313.58L136.01 313.36Z" fill="black"/>
<path d="M332.8 223.9C332.8 222.14 332.8 220.38 332.8 218.62C332.861 218.082 332.771 217.538 332.539 217.049C332.308 216.56 331.945 216.144 331.49 215.85C331.16 215.64 331.06 215.08 330.85 214.68C331.229 214.456 331.641 214.294 332.07 214.2C333.262 214.125 334.458 214.125 335.65 214.2C336.121 214.304 336.57 214.487 336.98 214.74C336.78 215.14 336.69 215.74 336.36 215.91C335.903 216.196 335.539 216.61 335.315 217.101C335.091 217.592 335.016 218.137 335.1 218.67C335.1 222.23 335.1 225.79 335.1 229.35C335.1 230.58 335.3 231.64 336.58 232.23C336.85 232.35 337.17 232.95 337.08 233.15C336.984 233.331 336.849 233.489 336.685 233.612C336.52 233.734 336.331 233.819 336.13 233.86C334.661 233.935 333.189 233.935 331.72 233.86C331.519 233.816 331.331 233.726 331.169 233.598C331.008 233.47 330.878 233.306 330.79 233.12C330.71 232.92 331.05 232.35 331.33 232.23C331.828 232.006 332.239 231.627 332.502 231.149C332.765 230.671 332.867 230.12 332.79 229.58C332.79 227.7 332.79 225.82 332.79 223.94L332.8 223.9Z" fill="black"/>
<path d="M32.3899 223.93C32.3899 222.05 32.3899 220.18 32.3899 218.3C32.4207 217.841 32.3351 217.381 32.1411 216.963C31.9471 216.545 31.6509 216.183 31.2799 215.91C30.9457 215.552 30.6751 215.14 30.4799 214.69C30.9522 214.492 31.4453 214.348 31.9499 214.26C33.0621 214.19 34.1777 214.19 35.2899 214.26C35.7917 214.361 36.2765 214.533 36.7299 214.77C36.4599 215.21 36.2899 215.82 35.8999 216.05C35.5494 216.196 35.2506 216.444 35.042 216.761C34.8335 217.078 34.7248 217.451 34.7299 217.83C34.7299 221.83 34.7899 225.83 34.8199 229.83C34.7845 230.313 34.8881 230.795 35.1185 231.221C35.3489 231.646 35.6965 231.996 36.1199 232.23C36.4199 232.4 36.5299 232.91 36.7399 233.23C36.3399 233.44 35.9499 233.83 35.5499 233.84C34.1199 233.84 32.6799 233.84 31.2399 233.75C30.9699 233.75 30.5199 233.54 30.4799 233.36C30.4499 233.194 30.4597 233.023 30.5083 232.862C30.557 232.7 30.6432 232.552 30.7599 232.43C32.6199 231.43 32.4699 229.74 32.4199 228.04C32.4199 226.69 32.4199 225.33 32.4199 223.97L32.3899 223.93Z" fill="black"/>
<path d="M230.659 233.67C229.399 233.73 228.139 233.85 226.879 233.83C226.66 233.817 226.447 233.753 226.258 233.641C226.068 233.53 225.908 233.376 225.789 233.19C225.783 232.972 225.833 232.757 225.934 232.564C226.036 232.371 226.186 232.208 226.369 232.09C226.821 231.92 227.204 231.605 227.457 231.194C227.71 230.784 227.82 230.3 227.769 229.82C227.769 225.91 227.769 222 227.769 218.09C227.799 217.629 227.689 217.169 227.453 216.772C227.218 216.374 226.868 216.056 226.449 215.86C226.089 215.67 225.959 215.07 225.729 214.65C226.122 214.474 226.535 214.346 226.959 214.27C228.154 214.179 229.352 214.152 230.549 214.19C231.018 214.295 231.467 214.474 231.879 214.72C231.659 215.14 231.539 215.72 231.189 215.94C230.796 216.18 230.477 216.526 230.27 216.938C230.064 217.349 229.977 217.811 230.019 218.27C230.019 221.98 230.019 225.7 230.019 229.41C229.969 229.93 230.061 230.453 230.287 230.924C230.513 231.394 230.863 231.794 231.299 232.08C231.481 232.235 231.623 232.431 231.713 232.652C231.804 232.873 231.84 233.112 231.819 233.35C231.769 233.63 231.119 233.8 230.729 234.02L230.659 233.67Z" fill="black"/>
<path d="M50.5302 313.64C51.0459 313.557 51.5678 313.517 52.0902 313.52C52.2596 313.53 52.4249 313.577 52.575 313.656C52.725 313.735 52.8564 313.846 52.9602 313.98C53.0046 314.144 53.0067 314.316 52.9665 314.48C52.9262 314.644 52.845 314.796 52.7302 314.92C52.3772 315.274 52.1112 315.704 51.9533 316.178C51.7953 316.652 51.7498 317.156 51.8202 317.65C51.8202 320.437 51.8202 323.23 51.8202 326.03C51.7861 326.449 51.8601 326.869 52.0352 327.251C52.2103 327.633 52.4806 327.963 52.8202 328.21C53.0802 328.41 53.3502 329 53.2402 329.21C53.1246 329.374 52.9759 329.513 52.8037 329.616C52.6314 329.719 52.4395 329.786 52.2402 329.81C51.1644 329.819 50.0891 329.762 49.0202 329.64C48.8746 329.615 48.7363 329.559 48.6152 329.474C48.4942 329.389 48.3934 329.279 48.3202 329.15C48.2402 329.01 48.4502 328.62 48.6402 328.48C49.0056 328.17 49.2882 327.773 49.4627 327.326C49.6372 326.879 49.6982 326.396 49.6402 325.92C49.6402 323.17 49.6402 320.41 49.6402 317.66C49.6378 316.904 49.4849 316.156 49.1902 315.46C48.3702 313.68 48.3702 313.64 50.5302 313.64Z" fill="black"/>
<path d="M155.84 329.8L153.66 329.38C153.92 328.73 154.23 328.08 154.44 327.38C154.647 326.825 154.769 326.242 154.8 325.65C154.8 323.05 154.8 320.45 154.7 317.86C154.532 316.866 154.253 315.893 153.87 314.96C153.77 314.6 153.55 314.12 153.69 313.89C153.83 313.66 154.36 313.61 154.69 313.58C155.402 313.53 156.117 313.53 156.83 313.58C157.19 313.58 157.7 313.72 157.83 313.97C157.898 314.146 157.922 314.335 157.899 314.522C157.877 314.708 157.808 314.887 157.7 315.04C156.76 315.97 156.79 317.1 156.8 318.27C156.8 320.83 156.73 323.39 156.8 325.94C156.924 326.707 157.167 327.449 157.52 328.14C157.67 328.56 157.87 328.97 158.05 329.38C157.61 329.49 157.18 329.64 156.74 329.71C156.408 329.748 156.072 329.748 155.74 329.71L155.84 329.8Z" fill="black"/>
<path d="M361.99 210.52C361.697 210.892 361.361 211.228 360.99 211.52C360.291 211.973 359.555 212.364 358.79 212.69C358.509 212.762 358.218 212.782 357.93 212.75C357.93 212.42 357.81 211.96 357.98 211.75C358.77 210.916 359.626 210.147 360.54 209.45C361.24 209.03 361.96 209.42 361.99 210.52Z" fill="black"/>
<path d="M103.23 324.76C102.797 324.805 102.362 324.805 101.93 324.76C101.67 324.71 101.29 324.43 101.28 324.24C101.27 324.05 101.58 323.57 101.77 323.56C102.788 323.495 103.811 323.495 104.83 323.56C105.01 323.56 105.31 324.04 105.29 324.26C105.27 324.48 104.9 324.76 104.65 324.8C104.177 324.845 103.702 324.845 103.23 324.8V324.76Z" fill="black"/>
</svg>
